<?xml version="1.0"?>
<svg xmlns="http://www.w3.org/2000/svg" viewBox="0 0 512 512" width="512" height="512"><g id="_16-recieve" data-name="16-recieve"><g id="linear_color" data-name="linear color"><path d="M444.4,374.122c-2.59,1.343-5.071,2.668-7.47,3.976-11.128-8.977-31.176-17.565-53.531-5.975-29.356,15.226-46.155,28.247-54.819,36.12l-20.669-1.923-37.955-30.364c10.586,2.9,21.427,5.706,30.878,7.806a61.967,61.967,0,0,0,13.445,1.551,45.716,45.716,0,0,0,26.3-7.931c20.569-14.021,25.117-41.662,25.3-42.832a10,10,0,0,0-7.18-11.179l-132-37A10.009,10.009,0,0,0,224,286H16a10,10,0,0,0,0,20H222.625l121.164,33.963c-2.353,6.68-6.778,15.685-14.548,20.942-6.5,4.4-14.373,5.488-24.072,3.333-30.447-6.765-77.689-21.626-78.162-21.775-10.5-3.218-17.767,10.422-9.254,17.346l80,64a10,10,0,0,0,5.321,2.148l28.109,2.615,57.891,5.385a9.859,9.859,0,0,0,8.7-3.673c.135-.165,13.994-16.717,55.824-38.406a27.06,27.06,0,0,1,27.567.81l-69.584,69.584L297.7,469.864,147.88,406.783A10.017,10.017,0,0,0,144,406H16a10,10,0,0,0,0,20H141.98l150.14,63.217A10.013,10.013,0,0,0,296,490c.222,0,.443-.008.665-.022l120-8a10,10,0,0,0,6.406-2.907l80-80a10,10,0,0,0,.475-13.633C494.843,375.43,471.279,360.185,444.4,374.122ZM386.06,413.59l-28.643-2.664A306.1,306.1,0,0,1,392.6,389.878c10.158-5.269,18.912-3.546,25.124-.515C400.771,400.111,390.934,408.763,386.06,413.59Z"/><path d="M336,234A106,106,0,1,0,230,128,106.12,106.12,0,0,0,336,234Zm0-192a86,86,0,1,1-86,86A86.1,86.1,0,0,1,336,42Z"/><path d="M327,138h17a14.015,14.015,0,0,1,14,14v1a14.015,14.015,0,0,1-14,14H318.791a5.507,5.507,0,0,1-5.507-5.609l.019-1.038a10,10,0,0,0-20-.358l-.019,1.036A25.509,25.509,0,0,0,318.791,187H326v6a10,10,0,0,0,20,0v-6.063A34.041,34.041,0,0,0,378,153v-1a34.038,34.038,0,0,0-34-34H327a14,14,0,0,1,0-28h24.811a5.508,5.508,0,0,1,5.5,5.744,10,10,0,0,0,19.982.86A25.508,25.508,0,0,0,351.811,70H346V64a10,10,0,0,0-20,0v6.025A33.995,33.995,0,0,0,327,138Z"/><path d="M439.071,280.929a10,10,0,0,0-14.142,14.142l32,32a10,10,0,0,0,14.142,0l32-32a10,10,0,0,0-14.142-14.142L474,295.857V240a10,10,0,0,0-20,0v55.857Z"/><path d="M464,210a10,10,0,0,0,10-10v-8a10,10,0,0,0-20,0v8A10,10,0,0,0,464,210Z"/><path d="M152.929,151.071a10,10,0,0,0,14.142,0l32-32a10,10,0,0,0-14.142-14.142L170,119.857V64a10,10,0,0,0-20,0v55.857l-14.929-14.928a10,10,0,0,0-14.142,14.142Z"/><path d="M160,34a10,10,0,0,0,10-10V16a10,10,0,0,0-20,0v8A10,10,0,0,0,160,34Z"/><path d="M56.929,247.071a10,10,0,0,0,14.142,0l32-32a10,10,0,0,0-14.142-14.142L74,215.857V160a10,10,0,0,0-20,0v55.857L39.071,200.929a10,10,0,0,0-14.142,14.142Z"/><path d="M64,130a10,10,0,0,0,10-10v-8a10,10,0,0,0-20,0v8A10,10,0,0,0,64,130Z"/></g></g></svg>
