<?xml version="1.0" encoding="iso-8859-1"?>
<!-- Generator: Adobe Illustrator 19.0.0, SVG Export Plug-In . SVG Version: 6.00 Build 0)  -->
<svg version="1.1" id="Capa_1" xmlns="http://www.w3.org/2000/svg" xmlns:xlink="http://www.w3.org/1999/xlink" x="0px" y="0px"
	 viewBox="0 0 512 512" style="enable-background:new 0 0 512 512;" xml:space="preserve">
<g>
	<g>
		<g>
			<path d="M505.078,382.839l-12.331-2.372c-5.769-1.109-10.325-4.89-12.476-10.368c-2.159-5.478-1.391-11.349,2.091-16.094
				l7.748-10.547c2.492-3.405,2.133-8.115-0.853-11.093l-16.717-16.708c-2.893-2.876-7.432-3.319-10.82-1.024l-10.377,7.031
				c-4.89,3.319-10.786,3.849-16.171,1.493c-5.393-2.355-8.994-7.04-9.899-12.86l-1.988-12.928
				c-0.648-4.164-4.224-7.236-8.439-7.236h-23.629c-4.096,0-7.612,2.901-8.388,6.921l-3.055,15.915
				c-1.084,5.658-4.762,10.163-10.078,12.365c-5.325,2.21-11.102,1.621-15.872-1.613l-13.414-9.088
				c-3.371-2.287-7.927-1.852-10.82,1.024l-16.717,16.708c-2.978,2.978-3.337,7.689-0.845,11.093l0.121,0.164l-35.863-19.56
				c-7.253-3.959-11.75-11.546-11.75-19.806v-28.228c5.709-7.484,22.076-30.814,29.892-61.764
				c8.055-6.468,12.774-16.154,12.774-26.53V153.6c0-8.218-3.072-16.188-8.533-22.4V85.811c0.478-4.693,2.355-32.64-17.852-55.689
				C263.289,10.129,234.839,0,196.268,0c-38.579,0-67.029,10.129-84.548,30.123C91.505,53.171,93.382,81.118,93.868,85.811V131.2
				c-5.47,6.212-8.533,14.182-8.533,22.4v34.133c0,10.377,4.71,20.062,12.774,26.53c7.817,30.95,24.183,54.281,29.892,61.764v28.228
				c0,8.26-4.506,15.846-11.75,19.806l-76.134,41.523c-24.755,13.5-40.115,39.398-40.115,67.584v36.164
				c0,4.71,3.814,8.533,8.533,8.533h312.453l11.383,11.383c2.978,2.995,7.697,3.336,11.076,0.853l10.556-7.74
				c4.745-3.473,10.615-4.233,16.085-2.091c5.487,2.15,9.267,6.699,10.377,12.484l2.364,12.314c0.777,4.028,4.292,6.929,8.388,6.929
				h23.629c4.215,0,7.791-3.072,8.439-7.236l1.399-9.096c0.896-5.854,4.702-10.709,10.189-12.979
				c5.487-2.278,11.597-1.527,16.384,1.971l7.415,5.444c3.396,2.483,8.098,2.142,11.085-0.853l16.708-16.708
				c2.893-2.884,3.328-7.424,1.032-10.812l-7.031-10.385c-3.311-4.881-3.849-10.778-1.493-16.171
				c2.347-5.393,7.04-9.003,12.868-9.899l12.919-1.988c4.164-0.648,7.236-4.224,7.236-8.439v-23.629
				C511.998,387.132,509.097,383.616,505.078,382.839z M17.068,433.169c0-21.939,11.964-42.095,31.215-52.599l76.134-41.532
				c12.74-6.946,20.651-20.275,20.651-34.782v-31.189c0-1.988-0.708-3.934-1.988-5.47c-0.205-0.247-21.163-25.737-29.099-60.297
				c-0.495-2.167-1.818-4.053-3.686-5.257c-4.949-3.2-7.893-8.55-7.893-14.31V153.6c0-4.787,2.031-9.25,5.717-12.578
				c1.792-1.621,2.816-3.925,2.816-6.34V85.333c0-0.375-0.026-0.742-0.077-1.118c-0.034-0.239-2.927-23.876,13.688-42.837
				c14.148-16.137,38.281-24.311,71.723-24.311c33.323,0,57.395,8.124,71.552,24.141c16.623,18.782,13.875,42.803,13.85,43.008
				c-0.043,0.375-0.068,0.742-0.068,1.118v49.348c0,2.415,1.024,4.719,2.816,6.34c3.678,3.328,5.717,7.791,5.717,12.578v34.133
				c0,5.76-2.953,11.11-7.902,14.31c-1.869,1.203-3.183,3.089-3.686,5.257c-7.927,34.56-28.885,60.049-29.099,60.297
				c-1.271,1.536-1.98,3.482-1.98,5.47v31.189c0,14.507,7.902,27.836,20.651,34.782l54.238,29.59
				c-0.146,0.493-0.306,0.984-0.499,1.471c-2.15,5.478-6.699,9.259-12.476,10.368l-12.322,2.372
				c-4.028,0.777-6.929,4.292-6.929,8.38v23.629c0,4.215,3.072,7.791,7.236,8.439l12.919,1.988
				c5.828,0.896,10.522,4.506,12.868,9.899c2.364,5.393,1.818,11.29-1.493,16.171l-6.402,9.455H17.068V433.169z M494.932,407.526
				l-5.692,0.879c-11.546,1.775-21.231,9.233-25.907,19.942c-4.676,10.709-3.55,22.886,3.004,32.563l3.081,4.548l-6.554,6.545
				l-1.51-1.109c-9.626-7.057-21.973-8.55-33.015-3.977s-18.705,14.353-20.523,26.155l-0.282,1.86h-9.267l-1.033-5.402
				c-2.21-11.477-10.027-20.881-20.907-25.148c-10.871-4.267-23.006-2.688-32.41,4.224l-4.651,3.405l-6.554-6.554l3.089-4.548
				c6.545-9.677,7.672-21.854,2.995-32.563c-4.676-10.709-14.353-18.167-25.907-19.942l-5.692-0.879v-9.259l5.402-1.041
				c11.477-2.202,20.872-10.018,25.148-20.89c4.267-10.88,2.697-23.006-4.215-32.435l-3.405-4.642l6.545-6.545l7.586,5.128
				c9.455,6.417,21.41,7.637,31.974,3.26c10.556-4.378,18.15-13.688,20.309-24.909l1.724-8.994h9.267l0.87,5.692
				c1.775,11.554,9.242,21.24,19.942,25.916c10.709,4.668,22.878,3.55,32.572-3.012l4.54-3.081l6.554,6.545l-3.413,4.651
				c-6.903,9.421-8.482,21.547-4.215,32.427c4.275,10.871,13.679,18.688,25.148,20.89l5.402,1.041V407.526z"/>
			<path d="M401.066,358.4c-23.526,0-42.667,19.14-42.667,42.667c0,23.526,19.14,42.667,42.667,42.667
				c23.526,0,42.667-19.14,42.667-42.667C443.732,377.54,424.592,358.4,401.066,358.4z M401.066,426.667
				c-14.114,0-25.6-11.486-25.6-25.6c0-14.114,11.486-25.6,25.6-25.6c14.114,0,25.6,11.486,25.6,25.6
				C426.666,415.181,415.18,426.667,401.066,426.667z"/>
		</g>
	</g>
</g>
<g>
</g>
<g>
</g>
<g>
</g>
<g>
</g>
<g>
</g>
<g>
</g>
<g>
</g>
<g>
</g>
<g>
</g>
<g>
</g>
<g>
</g>
<g>
</g>
<g>
</g>
<g>
</g>
<g>
</g>
</svg>
