<?xml version="1.0" encoding="iso-8859-1"?>
<!-- Generator: Adobe Illustrator 19.0.0, SVG Export Plug-In . SVG Version: 6.00 Build 0)  -->
<svg version="1.1" id="Capa_1" xmlns="http://www.w3.org/2000/svg" xmlns:xlink="http://www.w3.org/1999/xlink" x="0px" y="0px"
	 viewBox="0 0 479.998 479.998" style="enable-background:new 0 0 479.998 479.998;" xml:space="preserve">
<g>
	<g>
		<path d="M478.767,235.735c-49.997-79.763-136.66-129.139-230.768-131.48V39.999h-16v64.256
			c-94.108,2.341-180.771,51.717-230.768,131.48c-1.641,2.606-1.641,5.922,0,8.528c49.997,79.763,136.66,129.139,230.768,131.48
			v64.256h16v-64.256c94.108-2.341,180.771-51.717,230.768-131.48C480.409,241.657,480.409,238.341,478.767,235.735z
			 M17.511,239.999c32.661-49.941,81.233-87.386,137.84-106.264c-30.173,24.028-48.697,59.758-50.944,98.264H39.999v16h64.408
			c2.247,38.506,20.771,74.236,50.944,98.264C98.744,327.385,50.172,289.94,17.511,239.999z M231.999,311.999v47.592
			c-59.865-4.066-107.526-51.727-111.592-111.592h47.592v-16h-47.592c4.066-59.865,51.727-107.526,111.592-111.592v47.592h16
			v-47.592c59.865,4.066,107.526,51.726,111.592,111.592h-47.592v16h47.592c-4.066,59.865-51.727,107.526-111.592,111.592v-47.592
			H231.999z M462.487,239.999c-32.661,49.941-81.233,87.386-137.84,106.264c30.173-24.028,48.697-59.758,50.944-98.264h64.408v-16
			h-64.408c-2.247-38.506-20.771-74.237-50.944-98.264C381.255,152.614,429.826,190.058,462.487,239.999L462.487,239.999z"/>
	</g>
</g>
<g>
	<g>
		<path d="M239.999,183.999c-30.928,0-56,25.072-56,56c0.035,30.913,25.087,55.965,56,56c30.928,0,56-25.072,56-56
			C295.999,209.071,270.927,183.999,239.999,183.999z M239.999,279.999c-22.091,0-40-17.909-40-40c0.026-22.08,17.92-39.974,40-40
			c22.091,0,40,17.909,40,40S262.091,279.999,239.999,279.999z"/>
	</g>
</g>
<g>
	<g>
		<path d="M47.999,39.999c-4.418,0-8,3.582-8,8v64h16v-56h56v-16H47.999z"/>
	</g>
</g>
<g>
	<g>
		<path d="M431.999,39.999h-64v16h56v56h16v-64C439.999,43.581,436.417,39.999,431.999,39.999z"/>
	</g>
</g>
<g>
	<g>
		<path d="M423.999,367.999v56h-56v16h64c4.418,0,8-3.582,8-8v-64H423.999z"/>
	</g>
</g>
<g>
	<g>
		<path d="M55.999,423.999v-56h-16v64c0,4.418,3.582,8,8,8h64v-16H55.999z"/>
	</g>
</g>
<g>
</g>
<g>
</g>
<g>
</g>
<g>
</g>
<g>
</g>
<g>
</g>
<g>
</g>
<g>
</g>
<g>
</g>
<g>
</g>
<g>
</g>
<g>
</g>
<g>
</g>
<g>
</g>
<g>
</g>
</svg>
