<?xml version="1.0" encoding="iso-8859-1"?>
<!-- Generator: Adobe Illustrator 19.0.0, SVG Export Plug-In . SVG Version: 6.00 Build 0)  -->
<svg version="1.1" id="Capa_1" xmlns="http://www.w3.org/2000/svg" xmlns:xlink="http://www.w3.org/1999/xlink" x="0px" y="0px"
	 viewBox="0 0 539.077 539.077" style="enable-background:new 0 0 539.077 539.077;" xml:space="preserve">
<g>
	<g>
		<path d="M213.385,539.077H78.615c-30.961,0-56.154-25.181-56.154-56.154V67.385c0-1.206,0.186-2.358,0.537-3.444
			c-0.351-2.544-0.537-5.144-0.537-7.787C22.462,25.192,47.654,0,78.615,0h381.846c6.208,0,11.231,5.023,11.231,11.231
			s-5.023,11.231-11.231,11.231H78.615c-18.579,0-33.692,15.113-33.692,33.692s15.113,33.692,33.692,33.692h381.846
			c6.208,0,11.231,5.023,11.231,11.231v101.077c0,6.208-5.023,11.231-11.231,11.231c-6.208,0-11.231-5.023-11.231-11.231v-89.846
			H78.615c-12.635,0-24.304-4.19-33.692-11.253v381.868c0,18.579,15.113,33.692,33.692,33.692h134.769
			c6.208,0,11.231,5.023,11.231,11.231C224.615,534.054,219.592,539.077,213.385,539.077z"/>
		<path d="M370.615,539.077c-80.502,0-146-65.498-146-146s65.498-146,146-146s146,65.498,146,146S451.117,539.077,370.615,539.077z
			 M370.615,269.538c-68.108,0-123.538,55.43-123.538,123.538s55.43,123.538,123.538,123.538s123.538-55.43,123.538-123.538
			S438.724,269.538,370.615,269.538z"/>
		<path d="M370.615,460.462c-0.088,0-0.197,0-0.285,0l0,0c-0.022,0-0.022,0-0.022,0c-0.022,0-0.022,0-0.022,0l0,0
			c-1.404-0.044-2.742-0.351-3.948-0.855c-1.228-0.483-2.369-1.228-3.4-2.172l0,0c0,0,0-0.022-0.022-0.022c0,0,0,0,0-0.022l0,0
			c-0.088-0.066-0.175-0.154-0.263-0.241l-44.901-44.901c-4.387-4.387-4.387-11.494,0-15.881s11.494-4.387,15.881,0l25.752,25.752
			v-85.196c0-6.208,5.023-11.231,11.231-11.231s11.231,5.023,11.231,11.231v85.196l25.752-25.752c4.387-4.387,11.494-4.387,15.881,0
			s4.387,11.494,0,15.881l-44.901,44.901c-0.088,0.088-0.175,0.175-0.263,0.241l0,0c0,0.022,0,0.022,0,0.022
			c-0.022,0-0.022,0.022-0.022,0.022l0,0c-1.031,0.943-2.172,1.689-3.4,2.172c-1.228,0.504-2.544,0.812-3.948,0.855l0,0
			c0,0,0,0-0.022,0c0,0,0,0-0.022,0l0,0C370.813,460.462,370.703,460.462,370.615,460.462z M438,67.385H78.615
			c-6.208,0-11.231-5.023-11.231-11.231s5.023-11.231,11.231-11.231H438c6.208,0,11.231,5.023,11.231,11.231
			S444.208,67.385,438,67.385z"/>
	</g>
</g>
<g>
</g>
<g>
</g>
<g>
</g>
<g>
</g>
<g>
</g>
<g>
</g>
<g>
</g>
<g>
</g>
<g>
</g>
<g>
</g>
<g>
</g>
<g>
</g>
<g>
</g>
<g>
</g>
<g>
</g>
</svg>
