<?xml version="1.0" encoding="utf-8"?>
<!-- Generator: Adobe Illustrator 16.0.0, SVG Export Plug-In . SVG Version: 6.00 Build 0)  -->
<!DOCTYPE svg PUBLIC "-//W3C//DTD SVG 1.1//EN" "http://www.w3.org/Graphics/SVG/1.1/DTD/svg11.dtd">
<svg version="1.1" id="Layer_1" xmlns="http://www.w3.org/2000/svg" xmlns:xlink="http://www.w3.org/1999/xlink" x="0px" y="0px"
	 width="300px" height="70px" viewBox="0 0 300 70" enable-background="new 0 0 300 70" xml:space="preserve">
<g id="Capa_1">
</g>
<g id="Layer_2">
	<g>
		<g>
			<g>
				<g>
					<g>
						<path fill="#005881" d="M135.724,3.418H80.981c-2.324,0.002-4.208,1.887-4.21,4.21v46.32c0.005,2.078,1.527,3.84,3.583,4.146
							L78.44,60.01c-0.821,0.824-0.821,2.154,0,2.979l2.977,2.977c0.823,0.82,2.155,0.82,2.978,0L92.2,58.16h9.835v2.104h-1.053
							c-2.906,0.004-5.261,2.359-5.263,5.266c0,0.582,0.47,1.053,1.052,1.053h23.161c0.582,0,1.053-0.471,1.053-1.053
							c-0.004-2.906-2.357-5.262-5.264-5.266h-1.054V58.16h21.056c2.324-0.002,4.208-1.889,4.21-4.211V7.629
							C139.932,5.305,138.049,3.42,135.724,3.418z M78.876,53.949v-2.105h7.729l-4.21,4.211h-1.414
							C79.818,56.055,78.876,55.111,78.876,53.949z M91.024,56.359l-0.012,0.012l-8.106,8.107L79.929,61.5l9.959-9.959l0.011-0.012
							l3.46-3.459l2.978,2.977L91.024,56.359z M104.517,27.877c0.382-0.318,0.933-0.328,1.327-0.025l8,6.233
							c0.418,0.326,1.015,0.288,1.391-0.087l7.729-7.718c0.042,0.097,0.081,0.196,0.122,0.295c0.084,0.204,0.169,0.41,0.244,0.618
							c0.052,0.146,0.098,0.294,0.146,0.442c0.065,0.207,0.13,0.415,0.187,0.628c0.02,0.075,0.037,0.151,0.057,0.225l-8.312,8.313
							c-0.373,0.373-0.966,0.412-1.383,0.088l-8.127-6.318c-0.394-0.305-0.947-0.294-1.327,0.028L97.596,36.5
							c-0.039-0.104-0.071-0.207-0.105-0.311c-0.073-0.217-0.145-0.432-0.205-0.652c-0.042-0.149-0.077-0.296-0.112-0.446
							c-0.052-0.211-0.099-0.42-0.14-0.633c-0.014-0.069-0.024-0.14-0.037-0.21L104.517,27.877z M96.79,31.661
							c0.021-6.044,4.021-11.351,9.824-13.037c5.804-1.686,12.024,0.654,15.28,5.747l-7.489,7.479l-7.27-5.662
							c-1.181-0.909-2.835-0.875-3.978,0.081L96.79,31.661z M124.107,31.073c0.371,6.372-3.714,12.151-9.845,13.927
							c-6.129,1.775-12.671-0.928-15.762-6.512l6.774-5.734l7.454,5.794c1.259,0.977,3.046,0.863,4.17-0.268L124.107,31.073z
							 M99.62,43.309c0.511,0.479,1.051,0.928,1.62,1.338l-1.403,1.404l-1.479-1.48L99.62,43.309z M99.096,48.287l-1.271,1.271
							l-2.978-2.977l1.271-1.271L99.096,48.287z M115.721,62.371c1.337,0.002,2.531,0.846,2.978,2.107H98.005
							c0.448-1.264,1.64-2.105,2.978-2.107H115.721z M104.142,60.266v-2.104h8.421v2.104H104.142z M137.829,53.949
							c0,1.162-0.943,2.105-2.105,2.105H94.305l4.211-4.211h39.312L137.829,53.949L137.829,53.949z M137.829,49.738h-37.214
							c0.505-0.531,0.696-1.287,0.505-1.996l1.941-1.939c5.416,2.867,11.999,2.344,16.893-1.344
							c4.894-3.686,7.215-9.87,5.956-15.864c-0.132-0.608-0.296-1.207-0.497-1.796l5.046-5.047v2.722
							c0,0.582,0.471,1.053,1.053,1.053c0.583,0,1.053-0.471,1.053-1.053v-5.265c-0.002-0.127-0.026-0.251-0.073-0.368
							c-0.016-0.034-0.031-0.066-0.048-0.1c-0.04-0.079-0.089-0.151-0.148-0.219c-0.022-0.028-0.048-0.055-0.072-0.081
							c-0.082-0.077-0.178-0.142-0.282-0.188c-0.009-0.003-0.016-0.01-0.023-0.015l-0.003-0.002
							c-0.116-0.046-0.239-0.069-0.363-0.072c-0.015,0-0.026-0.008-0.041-0.008h-5.264c-0.581,0-1.053,0.471-1.053,1.053
							s0.472,1.053,1.053,1.053h2.721l-4.433,4.436c-0.102-0.197-0.198-0.398-0.307-0.59v-0.002l-0.002-0.003l-0.002-0.001
							c-3.714-6.607-11.603-9.643-18.787-7.232c-7.187,2.41-11.647,9.588-10.627,17.098c0.05,0.392,0.117,0.781,0.198,1.171
							c0.045,0.217,0.108,0.431,0.163,0.648l-3.693,3.125l-8.801-6.845c-0.296-0.231-0.694-0.285-1.042-0.145
							c-0.349,0.142-0.594,0.458-0.646,0.831c-0.051,0.373,0.099,0.745,0.396,0.976l9.475,7.369
							c0.394,0.307,0.945,0.295,1.327-0.025l3.708-3.139c0.087,0.209,0.171,0.424,0.269,0.633c0.541,1.146,1.217,2.221,2.018,3.201
							l-1.521,1.521c-0.724-0.199-1.5,0.006-2.033,0.535l-5.918,5.92h-9.834V7.629c0.001-1.162,0.943-2.104,2.105-2.105h54.743
							c1.161,0.001,2.104,0.943,2.105,2.105V49.738L137.829,49.738z"/>
						<path fill="#005881" d="M89.403,7.629c-3.81-0.003-7.146,2.551-8.139,6.229c-0.992,3.679,0.608,7.564,3.905,9.477
							c3.295,1.912,7.463,1.375,10.165-1.312c0.007-0.007,0.019-0.01,0.025-0.017c0.007-0.007,0.009-0.019,0.018-0.025
							c2.398-2.412,3.11-6.03,1.803-9.17C95.873,9.673,92.804,7.627,89.403,7.629z M89.403,22.368
							c-3.283,0.001-6.019-2.514-6.295-5.785c-0.273-3.271,2.004-6.207,5.243-6.753v6.222c0,0.28,0.111,0.547,0.308,0.745
							l4.398,4.398C91.992,21.958,90.714,22.368,89.403,22.368z M94.546,19.706l-2.602-2.602h3.679
							C95.468,18.041,95.098,18.93,94.546,19.706z M90.456,14.999V9.831c2.646,0.451,4.718,2.522,5.168,5.168H90.456z"/>
						<path fill="#005881" d="M126.249,42.369c-0.582,0-1.053,0.471-1.053,1.053v3.158c0,0.584,0.471,1.053,1.053,1.053
							s1.053-0.469,1.053-1.053v-3.158C127.302,42.84,126.831,42.369,126.249,42.369z"/>
						<path fill="#005881" d="M130.459,38.158c-0.582,0-1.052,0.471-1.052,1.053v7.369c0,0.584,0.47,1.053,1.052,1.053
							s1.053-0.469,1.053-1.053v-7.369C131.512,38.629,131.042,38.158,130.459,38.158z"/>
						<path fill="#005881" d="M134.67,40.266c-0.582,0-1.052,0.469-1.052,1.051v5.266c0,0.582,0.47,1.053,1.052,1.053
							c0.583,0,1.053-0.471,1.053-1.053v-5.266C135.724,40.734,135.252,40.266,134.67,40.266z"/>
					</g>
				</g>
			</g>
		</g>
		<g>
			<g>
				<g>
					<path fill="#FFFFFF" d="M219.021,3.418h-54.741c-2.324,0.002-4.21,1.887-4.212,4.21v46.32c0.005,2.078,1.527,3.84,3.583,4.146
						l-1.913,1.914c-0.82,0.824-0.82,2.154,0,2.979l2.976,2.977c0.824,0.82,2.156,0.82,2.979,0l7.803-7.805h9.837v2.104h-1.054
						c-2.904,0.004-5.261,2.359-5.263,5.266c0,0.582,0.47,1.053,1.054,1.053h23.159c0.583,0,1.054-0.471,1.054-1.053
						c-0.004-2.906-2.357-5.262-5.264-5.266h-1.054V58.16h21.055c2.324-0.002,4.208-1.889,4.211-4.211V7.629
						C223.229,5.305,221.347,3.42,219.021,3.418z M162.172,53.949v-2.105h7.732l-4.214,4.211h-1.412
						C163.116,56.055,162.172,55.111,162.172,53.949z M174.321,56.359l-0.013,0.012l-8.105,8.107l-2.978-2.979l9.959-9.959
						l0.012-0.012l3.459-3.459l2.977,2.977L174.321,56.359z M187.814,27.877c0.38-0.318,0.932-0.328,1.324-0.025l8.002,6.233
						c0.418,0.326,1.015,0.288,1.391-0.087l7.729-7.718c0.042,0.097,0.08,0.196,0.121,0.295c0.086,0.204,0.169,0.41,0.244,0.618
						c0.053,0.146,0.098,0.294,0.146,0.442c0.065,0.207,0.13,0.415,0.186,0.628c0.02,0.075,0.038,0.151,0.058,0.225l-8.313,8.313
						c-0.372,0.373-0.966,0.412-1.383,0.088l-8.129-6.318c-0.393-0.305-0.945-0.294-1.324,0.028l-6.974,5.902
						c-0.038-0.104-0.07-0.207-0.106-0.311c-0.072-0.217-0.145-0.432-0.205-0.652c-0.04-0.149-0.076-0.296-0.113-0.446
						c-0.051-0.211-0.098-0.42-0.139-0.633c-0.015-0.069-0.023-0.14-0.036-0.21L187.814,27.877z M180.086,31.661
						c0.022-6.044,4.022-11.351,9.826-13.037c5.803-1.686,12.023,0.654,15.279,5.747l-7.49,7.479l-7.27-5.662
						c-1.18-0.909-2.835-0.875-3.976,0.081L180.086,31.661z M207.404,31.073c0.37,6.372-3.714,12.151-9.845,13.927
						c-6.13,1.775-12.672-0.928-15.762-6.512l6.774-5.734l7.453,5.794c1.259,0.977,3.047,0.863,4.17-0.268L207.404,31.073z
						 M182.917,43.309c0.509,0.479,1.05,0.928,1.619,1.338l-1.403,1.404l-1.48-1.48L182.917,43.309z M182.393,48.287l-1.271,1.271
						l-2.977-2.977l1.272-1.271L182.393,48.287z M199.019,62.371c1.337,0.002,2.53,0.846,2.978,2.107h-20.693
						c0.447-1.264,1.639-2.105,2.976-2.107H199.019z M187.438,60.266v-2.104h8.423v2.104H187.438z M221.127,53.949
						c0,1.162-0.943,2.105-2.106,2.105h-41.417l4.209-4.211h39.314V53.949L221.127,53.949z M221.127,49.738h-37.216
						c0.505-0.531,0.698-1.287,0.505-1.996l1.943-1.939c5.414,2.867,11.997,2.344,16.892-1.344c4.896-3.686,7.216-9.87,5.957-15.864
						c-0.133-0.608-0.296-1.207-0.497-1.796l5.046-5.047v2.722c0,0.582,0.472,1.053,1.054,1.053c0.581,0,1.052-0.471,1.052-1.053
						v-5.265c-0.002-0.127-0.025-0.251-0.072-0.368c-0.016-0.034-0.03-0.066-0.049-0.1c-0.038-0.079-0.089-0.151-0.146-0.219
						c-0.021-0.028-0.048-0.055-0.072-0.081c-0.082-0.077-0.179-0.142-0.282-0.188c-0.009-0.003-0.015-0.01-0.023-0.015
						l-0.003-0.002c-0.117-0.046-0.239-0.069-0.363-0.072c-0.014,0-0.026-0.008-0.04-0.008h-5.266c-0.58,0-1.052,0.471-1.052,1.053
						s0.472,1.053,1.052,1.053h2.723l-4.434,4.436c-0.103-0.197-0.198-0.398-0.307-0.59v-0.002l-0.003-0.003l-0.002-0.001
						c-3.714-6.607-11.603-9.643-18.786-7.232c-7.188,2.41-11.647,9.588-10.627,17.098c0.051,0.392,0.116,0.781,0.197,1.171
						c0.047,0.217,0.109,0.431,0.164,0.648l-3.693,3.125l-8.801-6.845c-0.296-0.231-0.694-0.285-1.042-0.145
						c-0.35,0.142-0.595,0.458-0.647,0.831c-0.051,0.373,0.1,0.745,0.396,0.976l9.476,7.369c0.394,0.307,0.944,0.295,1.327-0.025
						l3.708-3.139c0.089,0.209,0.171,0.424,0.27,0.633c0.539,1.146,1.216,2.221,2.018,3.201l-1.521,1.521
						c-0.724-0.199-1.5,0.006-2.033,0.535l-5.918,5.92h-9.835V7.629c0-1.162,0.942-2.104,2.105-2.105h54.741
						c1.16,0.001,2.104,0.943,2.106,2.105V49.738L221.127,49.738z"/>
					<path fill="#FFFFFF" d="M172.7,7.629c-3.811-0.003-7.146,2.551-8.139,6.229c-0.991,3.679,0.608,7.564,3.904,9.477
						c3.295,1.912,7.464,1.375,10.165-1.312c0.009-0.007,0.02-0.01,0.023-0.017c0.009-0.007,0.011-0.019,0.02-0.025
						c2.398-2.412,3.11-6.03,1.803-9.17C179.169,9.673,176.101,7.627,172.7,7.629z M172.7,22.368
						c-3.282,0.001-6.02-2.514-6.295-5.785c-0.273-3.271,2.004-6.207,5.241-6.753v6.222c0.001,0.28,0.112,0.547,0.31,0.745
						l4.398,4.398C175.289,21.958,174.012,22.368,172.7,22.368z M177.843,19.706l-2.601-2.602h3.679
						C178.765,18.041,178.395,18.93,177.843,19.706z M173.754,14.999V9.831c2.646,0.451,4.716,2.522,5.167,5.168H173.754z"/>
					<path fill="#FFFFFF" d="M209.545,42.369c-0.581,0-1.052,0.471-1.052,1.053v3.158c0,0.584,0.471,1.053,1.052,1.053
						c0.583,0,1.054-0.469,1.054-1.053v-3.158C210.599,42.84,210.128,42.369,209.545,42.369z"/>
					<path fill="#FFFFFF" d="M213.757,38.158c-0.583,0-1.054,0.471-1.054,1.053v7.369c0,0.584,0.471,1.053,1.054,1.053
						c0.582,0,1.053-0.469,1.053-1.053v-7.369C214.81,38.629,214.339,38.158,213.757,38.158z"/>
					<path fill="#FFFFFF" d="M217.967,40.266c-0.582,0-1.052,0.469-1.052,1.051v5.266c0,0.582,0.47,1.053,1.052,1.053
						s1.053-0.471,1.053-1.053v-5.266C219.021,40.734,218.549,40.266,217.967,40.266z"/>
				</g>
			</g>
		</g>
	</g>
</g>
</svg>
