<?xml version="1.0" encoding="utf-8"?>
<!-- Generator: Adobe Illustrator 16.0.0, SVG Export Plug-In . SVG Version: 6.00 Build 0)  -->
<!DOCTYPE svg PUBLIC "-//W3C//DTD SVG 1.1//EN" "http://www.w3.org/Graphics/SVG/1.1/DTD/svg11.dtd">
<svg version="1.1" xmlns="http://www.w3.org/2000/svg" xmlns:xlink="http://www.w3.org/1999/xlink" x="0px" y="0px" width="300px"
	 height="70px" viewBox="0 0 300 70" enable-background="new 0 0 300 70" xml:space="preserve">
<g id="Capa_1">
</g>
<g id="Layer_2">
	<g>
		<g>
			<g>
				<path fill="#005881" d="M103.063,68.296H86.415c-3.825,0-6.937-3.11-6.937-6.936V10.028c0-0.15,0.023-0.292,0.066-0.425
					c-0.042-0.314-0.066-0.636-0.066-0.962c0-3.825,3.112-6.937,6.937-6.937h47.168c0.768,0,1.389,0.62,1.389,1.387
					c0,0.767-0.621,1.387-1.389,1.387H86.415c-2.296,0-4.162,1.867-4.162,4.162c0,2.295,1.866,4.162,4.162,4.162h47.168
					c0.768,0,1.389,0.62,1.389,1.387v12.486c0,0.768-0.621,1.387-1.389,1.387c-0.767,0-1.387-0.62-1.387-1.387V15.577H86.415
					c-1.561,0-3.002-0.517-4.162-1.39V61.36c0,2.295,1.866,4.162,4.162,4.162h16.648c0.767,0,1.387,0.618,1.387,1.386
					C104.451,67.676,103.83,68.296,103.063,68.296z"/>
				<path fill="#005881" d="M122.486,68.296c-9.944,0-18.035-8.09-18.035-18.036c0-9.943,8.091-18.035,18.035-18.035
					s18.036,8.09,18.036,18.035C140.522,60.206,132.43,68.296,122.486,68.296z M122.486,35c-8.413,0-15.261,6.846-15.261,15.259
					s6.848,15.262,15.261,15.262s15.26-6.849,15.26-15.262S130.899,35,122.486,35z"/>
				<path fill="#005881" d="M122.486,58.584c-0.011,0-0.024,0-0.035,0l0,0c-0.003,0-0.003,0-0.003,0c-0.003,0-0.003,0-0.003,0l0,0
					c-0.173-0.005-0.337-0.043-0.488-0.104c-0.15-0.061-0.292-0.152-0.42-0.27l0,0c0,0,0-0.002-0.001-0.002c0,0,0,0,0-0.004l0,0
					c-0.012-0.007-0.021-0.019-0.033-0.029l-5.547-5.545c-0.541-0.544-0.541-1.42,0-1.964c0.542-0.541,1.42-0.541,1.962,0
					l3.182,3.181V43.324c0-0.768,0.619-1.388,1.388-1.388c0.768,0,1.388,0.62,1.388,1.388v10.523l3.183-3.181
					c0.54-0.541,1.418-0.541,1.962,0c0.54,0.543,0.54,1.419,0,1.964l-5.547,5.545c-0.013,0.012-0.021,0.022-0.033,0.029l0,0
					c0,0.004,0,0.004,0,0.004c-0.003,0-0.003,0.002-0.003,0.002l0,0c-0.127,0.117-0.269,0.21-0.419,0.27
					c-0.152,0.061-0.315,0.099-0.488,0.104l0,0c0,0,0,0-0.003,0c0,0,0,0-0.002,0l0,0C122.51,58.584,122.498,58.584,122.486,58.584z
					 M130.81,10.028H86.415c-0.767,0-1.387-0.621-1.387-1.387c0-0.767,0.62-1.387,1.387-1.387h44.395
					c0.767,0,1.388,0.62,1.388,1.387C132.198,9.408,131.577,10.028,130.81,10.028z"/>
			</g>
		</g>
		<g>
			<g>
				<path fill="#FFFFFF" d="M183.063,68.296h-16.646c-3.826,0-6.938-3.11-6.938-6.936V10.028c0-0.15,0.023-0.292,0.066-0.425
					c-0.043-0.314-0.066-0.636-0.066-0.962c0-3.825,3.111-6.937,6.938-6.937h47.168c0.768,0,1.389,0.62,1.389,1.387
					c0,0.767-0.621,1.387-1.389,1.387h-47.168c-2.297,0-4.162,1.867-4.162,4.162c0,2.295,1.865,4.162,4.162,4.162h47.168
					c0.768,0,1.389,0.62,1.389,1.387v12.486c0,0.768-0.621,1.387-1.389,1.387s-1.387-0.62-1.387-1.387V15.577h-45.781
					c-1.563,0-3.004-0.517-4.162-1.39V61.36c0,2.295,1.865,4.162,4.162,4.162h16.646c0.768,0,1.387,0.618,1.387,1.386
					C184.451,67.676,183.83,68.296,183.063,68.296z"/>
				<path fill="#FFFFFF" d="M202.486,68.296c-9.945,0-18.035-8.09-18.035-18.036c0-9.943,8.09-18.035,18.035-18.035
					c9.943,0,18.035,8.09,18.035,18.035C220.521,60.206,212.43,68.296,202.486,68.296z M202.486,35
					c-8.414,0-15.262,6.846-15.262,15.259s6.848,15.262,15.262,15.262c8.412,0,15.26-6.849,15.26-15.262S210.898,35,202.486,35z"/>
				<path fill="#FFFFFF" d="M202.486,58.584c-0.012,0-0.025,0-0.035,0l0,0c-0.004,0-0.004,0-0.004,0c-0.002,0-0.002,0-0.002,0l0,0
					c-0.174-0.005-0.338-0.043-0.488-0.104s-0.293-0.152-0.42-0.27l0,0c0,0,0-0.002-0.002-0.002c0,0,0,0,0-0.004l0,0
					c-0.012-0.007-0.021-0.019-0.033-0.029l-5.547-5.545c-0.541-0.544-0.541-1.42,0-1.964c0.543-0.541,1.42-0.541,1.963,0
					l3.182,3.181V43.324c0-0.768,0.619-1.388,1.387-1.388s1.389,0.62,1.389,1.388v10.523l3.182-3.181
					c0.541-0.541,1.418-0.541,1.963,0c0.539,0.543,0.539,1.419,0,1.964l-5.547,5.545c-0.014,0.012-0.021,0.022-0.033,0.029l0,0
					c0,0.004,0,0.004,0,0.004c-0.004,0-0.004,0.002-0.004,0.002l0,0c-0.127,0.117-0.268,0.21-0.418,0.27
					c-0.152,0.061-0.316,0.099-0.488,0.104l0,0c0,0,0,0-0.004,0c0,0,0,0-0.002,0l0,0C202.51,58.584,202.498,58.584,202.486,58.584z
					 M210.811,10.028h-44.395c-0.768,0-1.387-0.621-1.387-1.387c0-0.767,0.619-1.387,1.387-1.387h44.395
					c0.766,0,1.387,0.62,1.387,1.387C212.197,9.408,211.576,10.028,210.811,10.028z"/>
			</g>
		</g>
	</g>
</g>
</svg>
