<?xml version="1.0" encoding="utf-8"?>
<!-- Generator: Adobe Illustrator 16.0.0, SVG Export Plug-In . SVG Version: 6.00 Build 0)  -->
<!DOCTYPE svg PUBLIC "-//W3C//DTD SVG 1.1//EN" "http://www.w3.org/Graphics/SVG/1.1/DTD/svg11.dtd">
<svg version="1.1" xmlns="http://www.w3.org/2000/svg" xmlns:xlink="http://www.w3.org/1999/xlink" x="0px" y="0px" width="300px"
	 height="70px" viewBox="0 0 300 70" enable-background="new 0 0 300 70" xml:space="preserve">
<g id="Layer_1">
</g>
<g id="Layer_2">
	<g>
		<g>
			<g>
				<path fill="#005881" d="M136.158,0H92.166c-0.616,0-1.115,0.499-1.115,1.115v15.457c0,0.473,0.299,0.895,0.746,1.052
					c0.447,0.156,0.942,0.014,1.239-0.355l3.47-4.338h11.189v6.094H83.842c-0.615,0-1.114,0.499-1.114,1.114V57.59
					c0,0.037,0.001,0.074,0.005,0.11c0.001,0.017,0.004,0.03,0.007,0.048c0.004,0.02,0.006,0.04,0.01,0.061
					c0.004,0.019,0.009,0.035,0.014,0.055c0.004,0.017,0.008,0.033,0.013,0.052s0.013,0.035,0.019,0.053
					c0.006,0.017,0.012,0.033,0.019,0.05c0.007,0.018,0.016,0.032,0.022,0.049c0.008,0.018,0.016,0.033,0.024,0.051
					c0.009,0.016,0.018,0.029,0.026,0.045c0.01,0.018,0.019,0.033,0.029,0.049c0.011,0.018,0.022,0.032,0.035,0.048
					c0.01,0.013,0.02,0.026,0.029,0.04c0.022,0.026,0.045,0.053,0.07,0.076c0.001,0.002,0.003,0.004,0.004,0.006l11.295,11.295
					c0.001,0.002,0.003,0.004,0.005,0.004c0.024,0.024,0.05,0.049,0.077,0.07c0.013,0.01,0.026,0.02,0.04,0.029
					c0.016,0.012,0.032,0.022,0.048,0.035c0.017,0.01,0.032,0.02,0.048,0.028s0.03,0.019,0.046,0.026
					c0.018,0.009,0.033,0.017,0.051,0.023c0.016,0.008,0.031,0.017,0.049,0.022c0.017,0.006,0.033,0.013,0.05,0.019
					c0.018,0.006,0.035,0.014,0.053,0.02c0.018,0.005,0.033,0.009,0.05,0.013c0.02,0.005,0.037,0.011,0.057,0.015
					c0.019,0.004,0.039,0.006,0.058,0.009c0.018,0.003,0.033,0.005,0.05,0.007c0.036,0.004,0.073,0.006,0.11,0.006h30.913
					c0.615,0,1.115-0.499,1.115-1.115V20.138c0-0.616-0.5-1.115-1.115-1.115h-5.424V12.93h11.189l3.471,4.338
					c0.295,0.369,0.792,0.512,1.238,0.355c0.447-0.157,0.746-0.579,0.746-1.052V1.115C137.272,0.499,136.772,0,136.158,0z
					 M94.023,66.193l-7.488-7.488h3.848h3.641V66.193L94.023,66.193z M124.938,21.252V67.77H96.254v-9.064h23.259
					c0.615,0,1.115-0.499,1.115-1.115c0-0.615-0.5-1.113-1.115-1.113H95.139h-4.756h-5.425V21.252h22.738v6.688H90.383
					c-0.616,0-1.115,0.499-1.115,1.115c0,0.616,0.499,1.115,1.115,1.115h17.313v7.282H90.383c-0.616,0-1.115,0.499-1.115,1.114
					s0.499,1.115,1.115,1.115h17.313v7.281H90.383c-0.616,0-1.115,0.499-1.115,1.114c0,0.616,0.499,1.114,1.115,1.114h17.313v1.857
					c0,0.615,0.499,1.115,1.115,1.115h10.701c0.615,0,1.115-0.5,1.115-1.115v-2.973v-9.512v-9.511V21.25h4.311V21.252z
					 M135.044,13.394l-1.82-2.274c-0.211-0.265-0.531-0.418-0.869-0.418h-12.842c-0.615,0-1.115,0.499-1.115,1.115v8.323v8.917
					v9.511v9.512v1.857h-8.471V48.08v-9.512v-9.511V20.14v-8.322c0-0.616-0.499-1.115-1.115-1.115H95.971
					c-0.338,0-0.659,0.154-0.871,0.418l-1.819,2.275V2.229h41.764V13.394L135.044,13.394z"/>
			</g>
		</g>
		<g>
			<g>
				<path fill="#005881" d="M133.187,4.161h-7.729c-0.616,0-1.115,0.499-1.115,1.115c0,0.616,0.499,1.115,1.115,1.115h7.729
					c0.615,0,1.113-0.499,1.113-1.115C134.3,4.66,133.802,4.161,133.187,4.161z"/>
			</g>
		</g>
		<g>
			<g>
				<path fill="#005881" d="M121.296,4.161h-5.35c-0.616,0-1.115,0.499-1.115,1.115c0,0.616,0.499,1.115,1.115,1.115h5.35
					c0.615,0,1.115-0.499,1.115-1.115C122.411,4.66,121.911,4.161,121.296,4.161z"/>
			</g>
		</g>
		<g>
			<g>
				<path fill="#FFFFFF" d="M216.158,0h-43.992c-0.616,0-1.115,0.499-1.115,1.115v15.457c0,0.473,0.3,0.895,0.746,1.052
					c0.447,0.156,0.942,0.014,1.239-0.355l3.47-4.338h11.19v6.094h-23.854c-0.614,0-1.114,0.499-1.114,1.114V57.59
					c0,0.037,0.002,0.074,0.006,0.11c0,0.017,0.004,0.03,0.006,0.048c0.004,0.02,0.006,0.04,0.01,0.061
					c0.004,0.019,0.009,0.035,0.014,0.055c0.004,0.017,0.008,0.033,0.014,0.052c0.004,0.019,0.012,0.035,0.018,0.053
					c0.006,0.017,0.012,0.033,0.02,0.05c0.006,0.018,0.015,0.032,0.021,0.049c0.008,0.018,0.016,0.033,0.025,0.051
					c0.008,0.016,0.017,0.029,0.025,0.045c0.01,0.018,0.02,0.033,0.029,0.049c0.011,0.018,0.023,0.032,0.035,0.048
					c0.01,0.013,0.02,0.026,0.029,0.04c0.022,0.026,0.045,0.053,0.07,0.076c0.001,0.002,0.003,0.004,0.004,0.006l11.295,11.295
					c0.002,0.002,0.004,0.004,0.006,0.004c0.023,0.024,0.049,0.049,0.076,0.07c0.014,0.01,0.026,0.02,0.041,0.029
					c0.016,0.012,0.031,0.022,0.047,0.035c0.017,0.01,0.032,0.02,0.049,0.028c0.015,0.009,0.029,0.019,0.045,0.026
					c0.018,0.009,0.033,0.017,0.051,0.023c0.016,0.008,0.031,0.017,0.049,0.022s0.033,0.013,0.051,0.019s0.034,0.014,0.053,0.02
					c0.017,0.005,0.033,0.009,0.049,0.013c0.02,0.005,0.037,0.011,0.057,0.015s0.039,0.006,0.059,0.009
					c0.017,0.003,0.033,0.005,0.049,0.007c0.037,0.004,0.074,0.006,0.111,0.006h30.912c0.615,0,1.115-0.499,1.115-1.115V20.138
					c0-0.616-0.5-1.115-1.115-1.115h-5.424V12.93h11.189l3.471,4.338c0.295,0.369,0.792,0.512,1.238,0.355
					c0.447-0.157,0.746-0.579,0.746-1.052V1.115C217.272,0.499,216.772,0,216.158,0z M174.024,66.193l-7.489-7.488h3.848h3.642
					V66.193L174.024,66.193z M204.938,21.252V67.77h-28.685v-9.064h23.259c0.615,0,1.115-0.499,1.115-1.115
					c0-0.615-0.5-1.113-1.115-1.113H175.14h-4.757h-5.425V21.252h22.738v6.688h-17.313c-0.616,0-1.114,0.499-1.114,1.115
					c0,0.616,0.498,1.115,1.114,1.115h17.313v7.282h-17.313c-0.616,0-1.114,0.499-1.114,1.114s0.498,1.115,1.114,1.115h17.313v7.281
					h-17.313c-0.616,0-1.114,0.499-1.114,1.114c0,0.616,0.498,1.114,1.114,1.114h17.313v1.857c0,0.615,0.5,1.115,1.115,1.115h10.701
					c0.615,0,1.115-0.5,1.115-1.115v-2.973v-9.512v-9.511V21.25h4.311V21.252z M215.044,13.394l-1.82-2.274
					c-0.211-0.265-0.531-0.418-0.869-0.418h-12.842c-0.615,0-1.115,0.499-1.115,1.115v8.323v8.917v9.511v9.512v1.857h-8.471V48.08
					v-9.512v-9.511V20.14v-8.322c0-0.616-0.499-1.115-1.115-1.115h-12.84c-0.339,0-0.66,0.154-0.871,0.418l-1.82,2.275V2.229h41.764
					V13.394L215.044,13.394z"/>
			</g>
		</g>
		<g>
			<g>
				<path fill="#FFFFFF" d="M213.187,4.161h-7.729c-0.616,0-1.115,0.499-1.115,1.115c0,0.616,0.499,1.115,1.115,1.115h7.729
					c0.615,0,1.113-0.499,1.113-1.115C214.3,4.66,213.802,4.161,213.187,4.161z"/>
			</g>
		</g>
		<g>
			<g>
				<path fill="#FFFFFF" d="M201.296,4.161h-5.35c-0.616,0-1.115,0.499-1.115,1.115c0,0.616,0.499,1.115,1.115,1.115h5.35
					c0.615,0,1.115-0.499,1.115-1.115C202.411,4.66,201.911,4.161,201.296,4.161z"/>
			</g>
		</g>
	</g>
</g>
</svg>
