<?xml version="1.0" encoding="utf-8"?>
<!-- Generator: Adobe Illustrator 16.0.0, SVG Export Plug-In . SVG Version: 6.00 Build 0)  -->
<!DOCTYPE svg PUBLIC "-//W3C//DTD SVG 1.1//EN" "http://www.w3.org/Graphics/SVG/1.1/DTD/svg11.dtd">
<svg version="1.1" id="Capa_1" xmlns="http://www.w3.org/2000/svg" xmlns:xlink="http://www.w3.org/1999/xlink" x="0px" y="0px"
	 width="300px" height="70px" viewBox="0 0 300 70" enable-background="new 0 0 300 70" xml:space="preserve">
<g>
	<g>
		<g>
			<path fill="#005881" d="M144.82,34.378c-7.291-11.632-19.93-18.833-33.654-19.174V5.833h-2.332v9.371
				c-13.725,0.341-26.363,7.542-33.654,19.174c-0.239,0.38-0.239,0.864,0,1.244c7.291,11.632,19.93,18.833,33.654,19.174v9.371
				h2.332v-9.371c13.725-0.341,26.363-7.542,33.654-19.174C145.061,35.242,145.061,34.758,144.82,34.378z M77.554,35
				c4.763-7.283,11.847-12.744,20.102-15.497c-4.4,3.504-7.102,8.715-7.43,14.331h-9.393v2.333h9.393
				c0.328,5.616,3.029,10.826,7.43,14.331C89.4,47.744,82.316,42.283,77.554,35z M108.834,45.5v6.94
				c-8.731-0.593-15.682-7.544-16.274-16.274h6.94v-2.333h-6.94c0.593-8.73,7.543-15.681,16.274-16.274v6.94h2.332v-6.94
				c8.73,0.593,15.682,7.543,16.274,16.274h-6.94v2.333h6.94c-0.593,8.73-7.544,15.682-16.274,16.274V45.5H108.834z M142.446,35
				c-4.763,7.283-11.847,12.744-20.102,15.497c4.399-3.505,7.102-8.715,7.429-14.331h9.394v-2.333h-9.394
				c-0.327-5.616-3.029-10.827-7.429-14.331C130.6,22.256,137.684,27.717,142.446,35L142.446,35z"/>
		</g>
	</g>
	<g>
		<g>
			<path fill="#005881" d="M110,26.833c-4.51,0-8.166,3.656-8.166,8.167c0.004,4.508,3.658,8.162,8.166,8.166
				c4.51,0,8.166-3.656,8.166-8.166C118.166,30.49,114.51,26.833,110,26.833z M110,40.834c-3.222,0-5.834-2.612-5.834-5.834
				c0.004-3.22,2.613-5.83,5.834-5.833c3.222,0,5.834,2.612,5.834,5.833S113.222,40.834,110,40.834z"/>
		</g>
	</g>
	<g>
		<g>
			<path fill="#005881" d="M82,5.833c-0.645,0-1.167,0.522-1.167,1.167v9.333h2.333V8.167h8.167V5.833H82z"/>
		</g>
	</g>
	<g>
		<g>
			<path fill="#005881" d="M138,5.833h-9.333v2.333h8.167v8.167h2.333V7C139.167,6.355,138.645,5.833,138,5.833z"/>
		</g>
	</g>
	<g>
		<g>
			<path fill="#005881" d="M136.834,53.667v8.167h-8.167v2.333H138c0.645,0,1.167-0.522,1.167-1.167v-9.333H136.834z"/>
		</g>
	</g>
	<g>
		<g>
			<path fill="#005881" d="M83.166,61.834v-8.167h-2.333V63c0,0.645,0.522,1.167,1.167,1.167h9.333v-2.333H83.166z"/>
		</g>
	</g>
	<g>
		<g>
			<path fill="#FFFFFF" d="M224.82,34.378c-7.291-11.632-19.93-18.833-33.654-19.174V5.833h-2.332v9.371
				c-13.725,0.341-26.363,7.542-33.654,19.174c-0.239,0.38-0.239,0.864,0,1.244c7.291,11.632,19.93,18.833,33.654,19.174v9.371
				h2.332v-9.371c13.725-0.341,26.363-7.542,33.654-19.174C225.061,35.242,225.061,34.758,224.82,34.378z M157.554,35
				c4.763-7.283,11.847-12.744,20.102-15.497c-4.399,3.504-7.102,8.715-7.429,14.331h-9.394v2.333h9.394
				c0.327,5.616,3.029,10.826,7.429,14.331C169.4,47.744,162.316,42.283,157.554,35z M188.834,45.5v6.94
				c-8.73-0.593-15.682-7.544-16.274-16.274h6.94v-2.333h-6.94c0.593-8.73,7.544-15.681,16.274-16.274v6.94h2.332v-6.94
				c8.73,0.593,15.682,7.543,16.274,16.274h-6.94v2.333h6.94c-0.593,8.73-7.544,15.682-16.274,16.274V45.5H188.834z M222.446,35
				c-4.763,7.283-11.847,12.744-20.102,15.497c4.399-3.505,7.102-8.715,7.429-14.331h9.394v-2.333h-9.394
				c-0.327-5.616-3.029-10.827-7.429-14.331C210.6,22.256,217.684,27.717,222.446,35L222.446,35z"/>
		</g>
	</g>
	<g>
		<g>
			<path fill="#FFFFFF" d="M190,26.833c-4.51,0-8.166,3.656-8.166,8.167c0.004,4.508,3.658,8.162,8.166,8.166
				c4.51,0,8.166-3.656,8.166-8.166C198.166,30.49,194.51,26.833,190,26.833z M190,40.834c-3.222,0-5.834-2.612-5.834-5.834
				c0.004-3.22,2.613-5.83,5.834-5.833c3.222,0,5.834,2.612,5.834,5.833S193.222,40.834,190,40.834z"/>
		</g>
	</g>
	<g>
		<g>
			<path fill="#FFFFFF" d="M162,5.833c-0.645,0-1.167,0.522-1.167,1.167v9.333h2.333V8.167h8.167V5.833H162z"/>
		</g>
	</g>
	<g>
		<g>
			<path fill="#FFFFFF" d="M218,5.833h-9.333v2.333h8.167v8.167h2.333V7C219.167,6.355,218.645,5.833,218,5.833z"/>
		</g>
	</g>
	<g>
		<g>
			<path fill="#FFFFFF" d="M216.834,53.667v8.167h-8.167v2.333H218c0.645,0,1.167-0.522,1.167-1.167v-9.333H216.834z"/>
		</g>
	</g>
	<g>
		<g>
			<path fill="#FFFFFF" d="M163.166,61.834v-8.167h-2.333V63c0,0.645,0.522,1.167,1.167,1.167h9.333v-2.333H163.166z"/>
		</g>
	</g>
</g>
</svg>
