<?xml version="1.0" encoding="utf-8"?>
<!-- Generator: Adobe Illustrator 16.0.0, SVG Export Plug-In . SVG Version: 6.00 Build 0)  -->
<!DOCTYPE svg PUBLIC "-//W3C//DTD SVG 1.1//EN" "http://www.w3.org/Graphics/SVG/1.1/DTD/svg11.dtd">
<svg version="1.1" xmlns="http://www.w3.org/2000/svg" xmlns:xlink="http://www.w3.org/1999/xlink" x="0px" y="0px" width="300px"
	 height="70px" viewBox="0 0 300 70" enable-background="new 0 0 300 70" xml:space="preserve">
<g id="Capa_1">
</g>
<g id="Layer_2">
	<g>
		<g>
			<g>
				<g>
					<path fill="#005881" d="M141.622,51.104l-1.566-0.302c-0.732-0.141-1.311-0.62-1.584-1.316
						c-0.273-0.694-0.176-1.44,0.265-2.044l0.985-1.338c0.315-0.432,0.271-1.029-0.109-1.408l-2.121-2.121
						c-0.368-0.365-0.944-0.42-1.373-0.131l-1.317,0.894c-0.621,0.421-1.371,0.488-2.054,0.188
						c-0.685-0.299-1.142-0.894-1.258-1.632l-0.251-1.642c-0.082-0.529-0.537-0.919-1.072-0.919h-2.998
						c-0.521,0-0.967,0.368-1.064,0.879l-0.389,2.021c-0.138,0.719-0.604,1.29-1.278,1.569c-0.677,0.281-1.411,0.206-2.015-0.205
						l-1.703-1.153c-0.429-0.291-1.007-0.234-1.375,0.13l-2.122,2.12c-0.376,0.38-0.423,0.978-0.106,1.409l0.016,0.021l-4.552-2.483
						c-0.922-0.502-1.492-1.465-1.492-2.514v-3.583c0.725-0.95,2.804-3.912,3.795-7.841c1.023-0.821,1.622-2.05,1.622-3.368V22
						c0-1.044-0.391-2.055-1.083-2.844v-5.763c0.06-0.596,0.299-4.143-2.267-7.07c-2.229-2.538-5.841-3.823-10.738-3.823
						c-4.897,0-8.51,1.286-10.733,3.824c-2.567,2.926-2.328,6.474-2.267,7.07v5.763c-0.695,0.789-1.084,1.8-1.084,2.844v4.333
						c0,1.318,0.598,2.547,1.623,3.368c0.992,3.928,3.069,6.891,3.794,7.841v3.582c0,1.049-0.572,2.012-1.491,2.514l-9.666,5.272
						c-3.142,1.714-5.092,5.002-5.092,8.58v4.591c0,0.599,0.484,1.083,1.083,1.083h39.667l1.445,1.445
						c0.379,0.381,0.979,0.424,1.406,0.108l1.34-0.983c0.603-0.44,1.348-0.536,2.042-0.265c0.696,0.273,1.178,0.851,1.318,1.585
						l0.3,1.563c0.098,0.512,0.546,0.88,1.064,0.88h2.999c0.534,0,0.989-0.39,1.071-0.92l0.177-1.153
						c0.114-0.743,0.598-1.36,1.294-1.647c0.697-0.289,1.473-0.194,2.08,0.251l0.941,0.69c0.432,0.316,1.027,0.271,1.408-0.108
						l2.12-2.12c0.368-0.367,0.423-0.943,0.133-1.373l-0.895-1.318c-0.419-0.621-0.487-1.369-0.188-2.054
						c0.298-0.685,0.895-1.142,1.635-1.258l1.639-0.251c0.53-0.082,0.92-0.537,0.92-1.071v-2.999
						C142.5,51.647,142.132,51.201,141.622,51.104z M79.667,57.492c0-2.785,1.519-5.345,3.963-6.677l9.666-5.272
						c1.618-0.882,2.622-2.574,2.622-4.417v-3.959c0-0.252-0.09-0.5-0.252-0.694c-0.026-0.031-2.687-3.268-3.694-7.655
						c-0.063-0.275-0.231-0.514-0.468-0.667c-0.629-0.407-1.002-1.085-1.002-1.817V22c0-0.607,0.257-1.175,0.726-1.597
						c0.227-0.206,0.357-0.499,0.357-0.805v-6.265c0-0.047-0.002-0.094-0.01-0.142c-0.003-0.031-0.371-3.031,1.738-5.438
						c1.796-2.048,4.86-3.086,9.106-3.086c4.23,0,7.287,1.031,9.084,3.064c2.11,2.385,1.762,5.434,1.758,5.46
						c-0.005,0.048-0.009,0.095-0.009,0.142v6.265c0,0.307,0.131,0.599,0.357,0.805c0.468,0.422,0.727,0.989,0.727,1.597v4.333
						c0,0.732-0.375,1.411-1.003,1.817c-0.238,0.153-0.405,0.392-0.469,0.667c-1.006,4.388-3.667,7.623-3.694,7.655
						c-0.161,0.194-0.251,0.441-0.251,0.694v3.96c0,1.841,1.004,3.533,2.623,4.416l6.885,3.757
						c-0.019,0.062-0.038,0.125-0.063,0.187c-0.271,0.694-0.851,1.175-1.583,1.316l-1.565,0.301
						c-0.511,0.098-0.879,0.545-0.879,1.063v2.999c0,0.535,0.39,0.99,0.919,1.071l1.64,0.251c0.74,0.114,1.337,0.573,1.634,1.258
						c0.3,0.685,0.23,1.434-0.19,2.054L117.522,61H79.667L79.667,57.492L79.667,57.492z M140.333,54.237l-0.722,0.11
						c-1.466,0.226-2.695,1.174-3.29,2.532c-0.594,1.359-0.45,2.905,0.382,4.135l0.391,0.576l-0.832,0.832l-0.191-0.141
						c-1.222-0.896-2.789-1.085-4.19-0.505c-1.403,0.58-2.376,1.822-2.607,3.32l-0.035,0.236h-1.177l-0.131-0.685
						c-0.281-1.457-1.273-2.651-2.654-3.193s-2.921-0.342-4.116,0.536l-0.591,0.433l-0.831-0.832l0.392-0.578
						c0.831-1.228,0.974-2.773,0.381-4.134c-0.595-1.359-1.822-2.306-3.29-2.532l-0.72-0.111v-1.177l0.686-0.131
						c1.456-0.281,2.649-1.273,3.192-2.652c0.542-1.382,0.343-2.921-0.535-4.118l-0.432-0.59l0.83-0.832l0.963,0.651
						c1.201,0.814,2.72,0.97,4.06,0.413c1.34-0.556,2.305-1.737,2.579-3.161l0.218-1.141h1.177l0.11,0.722
						c0.226,1.468,1.174,2.697,2.532,3.29c1.359,0.593,2.905,0.451,4.135-0.382l0.576-0.391l0.833,0.83l-0.434,0.592
						c-0.877,1.195-1.077,2.734-0.535,4.117c0.542,1.38,1.735,2.373,3.192,2.651l0.686,0.133V54.237L140.333,54.237z"/>
					<path fill="#005881" d="M128.416,48c-2.985,0-5.416,2.431-5.416,5.417s2.431,5.417,5.416,5.417
						c2.987,0,5.417-2.431,5.417-5.417S131.403,48,128.416,48z M128.416,56.667c-1.791,0-3.25-1.458-3.25-3.25s1.459-3.25,3.25-3.25
						c1.793,0,3.25,1.458,3.25,3.25S130.209,56.667,128.416,56.667z"/>
				</g>
			</g>
		</g>
		<g>
			<g>
				<g>
					<path fill="#FFFFFF" d="M221.622,51.104l-1.566-0.302c-0.732-0.141-1.311-0.62-1.584-1.316
						c-0.273-0.694-0.176-1.44,0.265-2.044l0.985-1.338c0.315-0.432,0.271-1.029-0.109-1.408l-2.121-2.121
						c-0.368-0.365-0.944-0.42-1.373-0.131l-1.317,0.894c-0.621,0.421-1.371,0.488-2.054,0.188
						c-0.685-0.299-1.142-0.894-1.258-1.632l-0.251-1.642c-0.082-0.529-0.537-0.919-1.072-0.919h-2.998
						c-0.521,0-0.967,0.368-1.064,0.879l-0.389,2.021c-0.138,0.719-0.604,1.29-1.278,1.569c-0.677,0.281-1.411,0.206-2.015-0.205
						l-1.703-1.153c-0.429-0.291-1.007-0.234-1.375,0.13l-2.122,2.12c-0.376,0.38-0.423,0.978-0.106,1.409l0.016,0.021l-4.552-2.483
						c-0.922-0.502-1.492-1.465-1.492-2.514v-3.583c0.725-0.95,2.804-3.912,3.795-7.841c1.023-0.821,1.622-2.05,1.622-3.368V22
						c0-1.044-0.391-2.055-1.083-2.844v-5.763c0.06-0.596,0.299-4.143-2.267-7.07c-2.229-2.538-5.841-3.823-10.738-3.823
						c-4.896,0-8.51,1.286-10.732,3.824c-2.567,2.926-2.328,6.474-2.268,7.07v5.763c-0.694,0.789-1.084,1.8-1.084,2.844v4.333
						c0,1.318,0.599,2.547,1.623,3.368c0.992,3.928,3.069,6.891,3.794,7.841v3.582c0,1.049-0.572,2.012-1.491,2.514l-9.666,5.272
						c-3.142,1.714-5.092,5.002-5.092,8.58v4.591c0,0.599,0.484,1.083,1.084,1.083h39.666l1.445,1.445
						c0.379,0.381,0.979,0.424,1.406,0.108l1.34-0.983c0.603-0.44,1.348-0.536,2.042-0.265c0.696,0.273,1.178,0.851,1.318,1.585
						l0.3,1.563c0.098,0.512,0.546,0.88,1.064,0.88h2.999c0.534,0,0.989-0.39,1.071-0.92l0.177-1.153
						c0.114-0.743,0.598-1.36,1.294-1.647c0.697-0.289,1.473-0.194,2.08,0.251l0.941,0.69c0.432,0.316,1.027,0.271,1.408-0.108
						l2.12-2.12c0.368-0.367,0.423-0.943,0.133-1.373l-0.895-1.318c-0.419-0.621-0.487-1.369-0.188-2.054
						c0.298-0.685,0.895-1.142,1.635-1.258l1.639-0.251c0.53-0.082,0.92-0.537,0.92-1.071v-2.999
						C222.5,51.647,222.132,51.201,221.622,51.104z M159.666,57.492c0-2.785,1.52-5.345,3.963-6.677l9.666-5.272
						c1.617-0.882,2.621-2.574,2.621-4.417v-3.959c0-0.252-0.09-0.5-0.252-0.694c-0.025-0.031-2.687-3.268-3.694-7.655
						c-0.063-0.275-0.231-0.514-0.468-0.667c-0.629-0.407-1.002-1.085-1.002-1.817V22c0-0.607,0.257-1.175,0.726-1.597
						c0.228-0.206,0.356-0.499,0.356-0.805v-6.265c0-0.047-0.002-0.094-0.01-0.142c-0.004-0.031-0.371-3.031,1.738-5.438
						c1.796-2.048,4.86-3.086,9.105-3.086c4.23,0,7.287,1.031,9.085,3.064c2.11,2.385,1.762,5.434,1.758,5.46
						c-0.005,0.048-0.009,0.095-0.009,0.142v6.265c0,0.307,0.131,0.599,0.357,0.805c0.468,0.422,0.727,0.989,0.727,1.597v4.333
						c0,0.732-0.375,1.411-1.003,1.817c-0.238,0.153-0.405,0.392-0.469,0.667c-1.006,4.388-3.667,7.623-3.694,7.655
						c-0.161,0.194-0.252,0.441-0.252,0.694v3.96c0,1.841,1.004,3.533,2.623,4.416l6.885,3.757
						c-0.019,0.062-0.038,0.125-0.063,0.187c-0.271,0.694-0.851,1.175-1.583,1.316l-1.565,0.301
						c-0.511,0.098-0.879,0.545-0.879,1.063v2.999c0,0.535,0.39,0.99,0.919,1.071l1.64,0.251c0.74,0.114,1.337,0.573,1.634,1.258
						c0.3,0.685,0.23,1.434-0.19,2.054L197.522,61h-37.854v-3.508H159.666z M220.333,54.237l-0.722,0.11
						c-1.466,0.226-2.695,1.174-3.29,2.532c-0.594,1.359-0.45,2.905,0.382,4.135l0.391,0.576l-0.832,0.832l-0.191-0.141
						c-1.222-0.896-2.789-1.085-4.19-0.505c-1.403,0.58-2.376,1.822-2.607,3.32l-0.035,0.236h-1.177l-0.131-0.685
						c-0.281-1.457-1.273-2.651-2.654-3.193s-2.921-0.342-4.116,0.536l-0.591,0.433l-0.831-0.832l0.392-0.578
						c0.831-1.228,0.974-2.773,0.381-4.134c-0.595-1.359-1.822-2.306-3.29-2.532l-0.72-0.111v-1.177l0.686-0.131
						c1.456-0.281,2.649-1.273,3.192-2.652c0.542-1.382,0.343-2.921-0.535-4.118l-0.432-0.59l0.83-0.832l0.963,0.651
						c1.201,0.814,2.72,0.97,4.06,0.413c1.34-0.556,2.305-1.737,2.579-3.161l0.218-1.141h1.177l0.11,0.722
						c0.226,1.468,1.174,2.697,2.532,3.29c1.359,0.593,2.905,0.451,4.135-0.382l0.576-0.391l0.833,0.83l-0.434,0.592
						c-0.877,1.195-1.077,2.734-0.535,4.117c0.542,1.38,1.735,2.373,3.192,2.651l0.686,0.133V54.237L220.333,54.237z"/>
					<path fill="#FFFFFF" d="M208.416,48c-2.985,0-5.416,2.431-5.416,5.417s2.431,5.417,5.416,5.417
						c2.987,0,5.417-2.431,5.417-5.417S211.403,48,208.416,48z M208.416,56.667c-1.791,0-3.25-1.458-3.25-3.25s1.459-3.25,3.25-3.25
						c1.793,0,3.25,1.458,3.25,3.25S210.209,56.667,208.416,56.667z"/>
				</g>
			</g>
		</g>
	</g>
</g>
</svg>
