<?xml version="1.0" encoding="utf-8"?>
<!-- Generator: Adobe Illustrator 16.0.0, SVG Export Plug-In . SVG Version: 6.00 Build 0)  -->
<!DOCTYPE svg PUBLIC "-//W3C//DTD SVG 1.1//EN" "http://www.w3.org/Graphics/SVG/1.1/DTD/svg11.dtd">
<svg version="1.1" xmlns="http://www.w3.org/2000/svg" xmlns:xlink="http://www.w3.org/1999/xlink" x="0px" y="0px" width="300px"
	 height="70px" viewBox="0 0 300 70" enable-background="new 0 0 300 70" xml:space="preserve">
<g id="Capa_1">
</g>
<g id="Layer_2">
	<g>
		<g>
			<path fill="#005881" d="M139.52,29.512h-13.306c-0.677,0-1.221,0.547-1.221,1.221c0,0.675,0.544,1.221,1.221,1.221h11.111
				l3.539,32.962H79.187l4.154-32.962h11.131c0.676,0,1.221-0.545,1.221-1.221c0-0.675-0.546-1.221-1.221-1.221H81.188
				l-4.772,37.847h67.167L139.52,29.512z"/>
			<path fill="#005881" d="M108.957,48.99c-0.179,0.107-0.372,0.2-0.543,0.312c-0.269,0.174-0.532,0.355-0.789,0.543
				c-0.543,0.398-0.66,1.164-0.263,1.707c0.24,0.325,0.61,0.497,0.986,0.497c0.25,0,0.503-0.077,0.721-0.234
				c0.218-0.161,0.438-0.314,0.669-0.463c0.392-0.255,0.808-0.493,1.237-0.709c0.571-0.29,0.804-0.966,0.564-1.549
				c0.011-0.011,0.021-0.018,0.032-0.026c2.208-2.339,9.65-11.105,12.732-25.709c0.625-2.961,0.766-5.803,0.417-8.446
				c-1.05-8.027-6.037-12.271-14.421-12.271c-8.382,0-13.37,4.243-14.421,12.271c-0.347,2.645-0.207,5.486,0.419,8.446
				C99.347,37.819,106.672,46.551,108.957,48.99z M98.299,15.229c0.895-6.827,4.82-10.146,12.001-10.146
				c7.182,0,11.107,3.319,12.001,10.146c0.312,2.368,0.18,4.936-0.386,7.626c-2.771,13.129-9.374,21.458-11.614,23.985
				c-2.242-2.53-8.846-10.862-11.615-23.985C98.118,20.165,97.989,17.6,98.299,15.229z"/>
			<path fill="#005881" d="M110.3,25.742c4.945,0,8.969-4.022,8.969-8.968s-4.022-8.969-8.969-8.969s-8.968,4.022-8.968,8.969
				C101.333,21.72,105.355,25.742,110.3,25.742z M110.3,10.249c3.598,0,6.527,2.927,6.527,6.526c0,3.599-2.928,6.526-6.527,6.526
				c-3.598,0-6.526-2.928-6.526-6.526C103.774,13.176,106.703,10.249,110.3,10.249z"/>
			<path fill="#005881" d="M114.785,46.796c-0.66,0.139-1.08,0.789-0.94,1.448c0.123,0.574,0.63,0.968,1.194,0.968
				c0.084,0,0.171-0.01,0.256-0.027c0.716-0.152,1.491-0.279,2.302-0.383c0.669-0.081,1.145-0.691,1.061-1.36
				c-0.083-0.67-0.687-1.153-1.361-1.06C116.415,46.488,115.57,46.628,114.785,46.796z"/>
			<path fill="#005881" d="M121.098,47.291c0.025,0.656,0.569,1.169,1.219,1.169c0.019,0,0.035,0,0.054-0.002l2.442-0.101
				c0.673-0.028,1.195-0.602,1.163-1.274c-0.028-0.673-0.657-1.201-1.273-1.164l-2.436,0.101
				C121.591,46.048,121.068,46.616,121.098,47.291z"/>
			<path fill="#005881" d="M103.803,52.908c-0.627,0.473-1.276,0.929-1.928,1.353c-0.565,0.367-0.727,1.122-0.36,1.688
				c0.233,0.36,0.626,0.557,1.025,0.557c0.229,0,0.458-0.064,0.664-0.197c0.7-0.455,1.397-0.942,2.069-1.45
				c0.537-0.407,0.645-1.174,0.24-1.711C105.107,52.613,104.345,52.502,103.803,52.908z"/>
			<path fill="#005881" d="M131.012,44.858c-0.413,0.289-0.948,0.499-1.644,0.643c-0.661,0.135-1.085,0.78-0.948,1.443
				c0.12,0.577,0.628,0.973,1.195,0.973c0.081,0,0.165-0.008,0.248-0.024c1.028-0.213,1.862-0.552,2.559-1.042l0.164-0.12
				c0.538-0.407,0.643-1.174,0.236-1.709c-0.407-0.538-1.172-0.644-1.71-0.238L131.012,44.858z"/>
			<path fill="#005881" d="M87.233,54.404c0.177-0.651-0.209-1.321-0.86-1.497c-0.646-0.182-1.32,0.206-1.497,0.86
				c-0.154,0.565-0.246,1.144-0.275,1.715c-0.006,0.141-0.009,0.281-0.009,0.431c0.001,0.239,0.013,0.478,0.036,0.716
				c0.064,0.63,0.594,1.097,1.213,1.097c0.04,0,0.082-0.002,0.126-0.006c0.669-0.069,1.159-0.667,1.091-1.339
				c-0.018-0.159-0.023-0.323-0.024-0.477c0-0.1,0.004-0.202,0.009-0.301C87.063,55.207,87.126,54.802,87.233,54.404z"/>
			<path fill="#005881" d="M130.986,35.369c-0.971-0.13-1.958-0.05-2.913,0.22c-0.649,0.182-1.026,0.857-0.843,1.505
				c0.152,0.54,0.642,0.891,1.174,0.891c0.11,0,0.222-0.016,0.331-0.046c0.636-0.18,1.29-0.235,1.923-0.149
				c0.688,0.086,1.286-0.381,1.375-1.046C132.122,36.072,131.653,35.46,130.986,35.369z"/>
			<path fill="#005881" d="M133.415,41.417c-0.198,0.643,0.163,1.329,0.806,1.525c0.122,0.038,0.241,0.056,0.36,0.056
				c0.522,0,1.005-0.337,1.166-0.859c0.121-0.388,0.196-0.782,0.225-1.177c0.006-0.102,0.009-0.203,0.009-0.304
				c0-0.572-0.104-1.145-0.311-1.7c-0.234-0.633-0.941-0.953-1.568-0.72c-0.635,0.234-0.956,0.938-0.722,1.569
				c0.104,0.283,0.159,0.569,0.159,0.849l-0.004,0.143C133.52,41,133.482,41.202,133.415,41.417z"/>
			<path fill="#005881" d="M97.758,56.555c-0.716,0.337-1.444,0.647-2.166,0.927c-0.628,0.242-0.941,0.948-0.699,1.579
				c0.188,0.483,0.649,0.78,1.139,0.78c0.147,0,0.296-0.023,0.44-0.08c0.775-0.3,1.556-0.636,2.323-0.993
				c0.61-0.285,0.873-1.014,0.586-1.623C99.097,56.531,98.372,56.268,97.758,56.555z"/>
			<path fill="#005881" d="M88.87,51.473c0.197,0,0.397-0.048,0.583-0.149c0.351-0.19,0.726-0.311,1.112-0.352
				c0.164-0.021,0.333-0.021,0.495,0.001c0.688,0.091,1.282-0.381,1.37-1.049c0.088-0.669-0.382-1.282-1.05-1.37
				c-0.364-0.048-0.734-0.051-1.088-0.01c-0.7,0.077-1.377,0.292-2.009,0.636c-0.592,0.324-0.811,1.063-0.487,1.655
				C88.019,51.243,88.438,51.473,88.87,51.473z"/>
			<path fill="#005881" d="M88.616,61.046c0.264,0.068,0.533,0.118,0.798,0.15c0.313,0.037,0.625,0.058,0.939,0.058
				c0.382,0,0.766-0.025,1.148-0.074c0.668-0.085,1.144-0.695,1.059-1.364c-0.086-0.669-0.693-1.141-1.364-1.06
				c-0.493,0.064-0.991,0.079-1.484,0.02c-0.162-0.021-0.323-0.053-0.481-0.093c-0.653-0.174-1.318,0.222-1.489,0.874
				C87.574,60.211,87.964,60.877,88.616,61.046z"/>
		</g>
		<g>
			<path fill="#FFFFFF" d="M219.52,29.512h-13.305c-0.678,0-1.221,0.547-1.221,1.221c0,0.675,0.543,1.221,1.221,1.221h11.111
				l3.539,32.962h-61.678l4.154-32.962h11.131c0.676,0,1.221-0.545,1.221-1.221c0-0.675-0.547-1.221-1.221-1.221h-13.285
				l-4.771,37.847h67.168L219.52,29.512z"/>
			<path fill="#FFFFFF" d="M188.957,48.99c-0.18,0.107-0.371,0.2-0.543,0.312c-0.27,0.174-0.531,0.355-0.789,0.543
				c-0.543,0.398-0.66,1.164-0.264,1.707c0.24,0.325,0.611,0.497,0.986,0.497c0.252,0,0.504-0.077,0.723-0.234
				c0.217-0.161,0.438-0.314,0.668-0.463c0.393-0.255,0.809-0.493,1.238-0.709c0.57-0.29,0.803-0.966,0.564-1.549
				c0.01-0.011,0.021-0.018,0.031-0.026c2.207-2.339,9.65-11.105,12.732-25.709c0.625-2.961,0.766-5.803,0.416-8.446
				c-1.049-8.027-6.037-12.271-14.42-12.271s-13.371,4.243-14.422,12.271c-0.348,2.645-0.207,5.486,0.418,8.446
				C179.348,37.819,186.672,46.551,188.957,48.99z M178.299,15.229c0.895-6.827,4.82-10.146,12.002-10.146s11.107,3.319,12,10.146
				c0.313,2.368,0.18,4.936-0.385,7.626c-2.771,13.129-9.375,21.458-11.615,23.985c-2.242-2.53-8.846-10.862-11.615-23.985
				C178.117,20.165,177.988,17.6,178.299,15.229z"/>
			<path fill="#FFFFFF" d="M190.301,25.742c4.945,0,8.969-4.022,8.969-8.968s-4.023-8.969-8.969-8.969
				c-4.947,0-8.969,4.022-8.969,8.969C181.332,21.72,185.355,25.742,190.301,25.742z M190.301,10.249
				c3.598,0,6.527,2.927,6.527,6.526c0,3.599-2.928,6.526-6.527,6.526s-6.527-2.928-6.527-6.526
				C183.773,13.176,186.703,10.249,190.301,10.249z"/>
			<path fill="#FFFFFF" d="M194.785,46.796c-0.66,0.139-1.08,0.789-0.941,1.448c0.123,0.574,0.631,0.968,1.195,0.968
				c0.084,0,0.17-0.01,0.256-0.027c0.715-0.152,1.49-0.279,2.301-0.383c0.67-0.081,1.145-0.691,1.061-1.36
				c-0.082-0.67-0.686-1.153-1.361-1.06C196.414,46.488,195.57,46.628,194.785,46.796z"/>
			<path fill="#FFFFFF" d="M201.098,47.291c0.025,0.656,0.57,1.169,1.219,1.169c0.02,0,0.035,0,0.055-0.002l2.441-0.101
				c0.674-0.028,1.195-0.602,1.164-1.274c-0.029-0.673-0.658-1.201-1.273-1.164l-2.436,0.101
				C201.592,46.048,201.068,46.616,201.098,47.291z"/>
			<path fill="#FFFFFF" d="M183.803,52.908c-0.627,0.473-1.275,0.929-1.928,1.353c-0.566,0.367-0.727,1.122-0.359,1.688
				c0.232,0.36,0.625,0.557,1.025,0.557c0.229,0,0.457-0.064,0.664-0.197c0.699-0.455,1.396-0.942,2.068-1.45
				c0.537-0.407,0.645-1.174,0.24-1.711C185.107,52.613,184.344,52.502,183.803,52.908z"/>
			<path fill="#FFFFFF" d="M211.012,44.858c-0.412,0.289-0.947,0.499-1.643,0.643c-0.662,0.135-1.086,0.78-0.949,1.443
				c0.121,0.577,0.629,0.973,1.195,0.973c0.082,0,0.166-0.008,0.248-0.024c1.029-0.213,1.863-0.552,2.559-1.042l0.164-0.12
				c0.539-0.407,0.643-1.174,0.236-1.709c-0.406-0.538-1.172-0.644-1.709-0.238L211.012,44.858z"/>
			<path fill="#FFFFFF" d="M167.232,54.404c0.178-0.651-0.209-1.321-0.859-1.497c-0.645-0.182-1.32,0.206-1.496,0.86
				c-0.154,0.565-0.246,1.144-0.275,1.715c-0.006,0.141-0.01,0.281-0.01,0.431c0,0.239,0.012,0.478,0.035,0.716
				c0.064,0.63,0.594,1.097,1.213,1.097c0.041,0,0.082-0.002,0.127-0.006c0.67-0.069,1.158-0.667,1.09-1.339
				c-0.018-0.159-0.021-0.323-0.023-0.477c0-0.1,0.004-0.202,0.01-0.301C167.063,55.207,167.125,54.802,167.232,54.404z"/>
			<path fill="#FFFFFF" d="M210.986,35.369c-0.971-0.13-1.959-0.05-2.914,0.22c-0.648,0.182-1.025,0.857-0.842,1.505
				c0.152,0.54,0.641,0.891,1.174,0.891c0.109,0,0.221-0.016,0.33-0.046c0.637-0.18,1.291-0.235,1.924-0.149
				c0.688,0.086,1.285-0.381,1.375-1.046C212.121,36.072,211.652,35.46,210.986,35.369z"/>
			<path fill="#FFFFFF" d="M213.414,41.417c-0.197,0.643,0.164,1.329,0.807,1.525c0.121,0.038,0.24,0.056,0.359,0.056
				c0.523,0,1.006-0.337,1.166-0.859c0.121-0.388,0.197-0.782,0.225-1.177c0.006-0.102,0.01-0.203,0.01-0.304
				c0-0.572-0.105-1.145-0.311-1.7c-0.234-0.633-0.941-0.953-1.568-0.72c-0.635,0.234-0.957,0.938-0.723,1.569
				c0.105,0.283,0.16,0.569,0.16,0.849l-0.004,0.143C213.52,41,213.482,41.202,213.414,41.417z"/>
			<path fill="#FFFFFF" d="M177.758,56.555c-0.715,0.337-1.443,0.647-2.166,0.927c-0.627,0.242-0.941,0.948-0.697,1.579
				c0.188,0.483,0.648,0.78,1.139,0.78c0.146,0,0.295-0.023,0.439-0.08c0.775-0.3,1.557-0.636,2.322-0.993
				c0.611-0.285,0.873-1.014,0.586-1.623C179.098,56.531,178.371,56.268,177.758,56.555z"/>
			<path fill="#FFFFFF" d="M168.869,51.473c0.197,0,0.398-0.048,0.584-0.149c0.352-0.19,0.727-0.311,1.113-0.352
				c0.164-0.021,0.332-0.021,0.494,0.001c0.688,0.091,1.281-0.381,1.371-1.049c0.088-0.669-0.383-1.282-1.051-1.37
				c-0.363-0.048-0.734-0.051-1.088-0.01c-0.701,0.077-1.377,0.292-2.01,0.636c-0.592,0.324-0.811,1.063-0.486,1.655
				C168.02,51.243,168.438,51.473,168.869,51.473z"/>
			<path fill="#FFFFFF" d="M168.615,61.046c0.264,0.068,0.533,0.118,0.799,0.15c0.313,0.037,0.625,0.058,0.939,0.058
				c0.381,0,0.766-0.025,1.148-0.074c0.668-0.085,1.143-0.695,1.059-1.364c-0.086-0.669-0.693-1.141-1.365-1.06
				c-0.492,0.064-0.99,0.079-1.484,0.02c-0.16-0.021-0.322-0.053-0.48-0.093c-0.652-0.174-1.318,0.222-1.488,0.874
				C167.574,60.211,167.965,60.877,168.615,61.046z"/>
		</g>
	</g>
</g>
</svg>
