<?xml version="1.0" encoding="utf-8"?>
<!-- Generator: Adobe Illustrator 16.0.0, SVG Export Plug-In . SVG Version: 6.00 Build 0)  -->
<!DOCTYPE svg PUBLIC "-//W3C//DTD SVG 1.1//EN" "http://www.w3.org/Graphics/SVG/1.1/DTD/svg11.dtd">
<svg version="1.1" xmlns="http://www.w3.org/2000/svg" xmlns:xlink="http://www.w3.org/1999/xlink" x="0px" y="0px" width="300px"
	 height="70px" viewBox="0 0 300 70" enable-background="new 0 0 300 70" xml:space="preserve">
<g id="Capa_1">
</g>
<g id="Layer_2">
	<g>
		<g>
			<path fill="#005881" d="M88.88,9.144c-2.688,0-4.873,2.186-4.873,4.873s2.186,4.874,4.873,4.874c2.688,0,4.874-2.187,4.874-4.874
				S91.568,9.144,88.88,9.144z M88.88,16.725c-1.491,0-2.708-1.214-2.708-2.708c0-1.493,1.215-2.708,2.708-2.708
				c1.493,0,2.708,1.215,2.708,2.708C91.588,15.511,90.372,16.725,88.88,16.725z"/>
			<circle fill="#005881" cx="131.661" cy="12.392" r="1.083"/>
			<circle fill="#005881" cx="127.327" cy="12.392" r="1.083"/>
			<circle fill="#005881" cx="133.826" cy="15.641" r="1.083"/>
			<circle fill="#005881" cx="129.494" cy="15.641" r="1.083"/>
			<circle fill="#005881" cx="122.996" cy="12.392" r="1.083"/>
			<circle fill="#005881" cx="125.163" cy="15.641" r="1.083"/>
			<circle fill="#005881" cx="118.664" cy="12.392" r="1.083"/>
			<circle fill="#005881" cx="120.829" cy="15.641" r="1.083"/>
			<circle fill="#005881" cx="114.331" cy="12.392" r="1.083"/>
			<circle fill="#005881" cx="116.498" cy="15.641" r="1.083"/>
			<path fill="#005881" d="M88.88,29.721c-2.688,0-4.873,2.187-4.873,4.875c0,2.687,2.186,4.872,4.873,4.872
				c2.688,0,4.874-2.186,4.874-4.872C93.754,31.907,91.568,29.721,88.88,29.721z M88.88,37.301c-1.491,0-2.708-1.212-2.708-2.705
				c0-1.494,1.215-2.709,2.708-2.709c1.493,0,2.708,1.215,2.708,2.709C91.588,36.089,90.372,37.301,88.88,37.301z"/>
			<path fill="#005881" d="M88.88,50.298c-2.688,0-4.873,2.187-4.873,4.874s2.186,4.874,4.873,4.874
				c2.688,0,4.874-2.187,4.874-4.874S91.568,50.298,88.88,50.298z M88.88,57.881c-1.491,0-2.708-1.217-2.708-2.709
				c0-1.493,1.215-2.708,2.708-2.708c1.493,0,2.708,1.215,2.708,2.708S90.372,57.881,88.88,57.881z"/>
			<path fill="#005881" d="M142.491,20.398V7.636c0-2.753-2.239-4.991-4.991-4.991h-55c-2.751,0-4.991,2.238-4.991,4.991v12.762
				c0,1.591,0.761,2.993,1.925,3.906c-1.164,0.916-1.925,2.319-1.925,3.909v12.763c0,1.589,0.761,2.992,1.925,3.906
				c-1.164,0.916-1.925,2.319-1.925,3.909v12.761c0,2.752,2.239,4.992,4.991,4.992h30.189c2.905,0.534,6.09,0.812,9.227,0.812
				c9.392,0,19.295-2.437,20.463-7.099c0.072-0.144,0.114-0.309,0.114-0.483v-9.748v-0.403v-0.406V40.28v-0.406v-0.406v-9.341V29.72
				c0-0.162-0.041-0.313-0.103-0.45c-0.377-1.585-1.787-2.92-3.858-3.991C140.788,24.804,142.491,22.797,142.491,20.398z
				 M79.674,40.977V28.213c0-1.559,1.267-2.824,2.824-2.824h22.592c-1.959,1.052-3.289,2.348-3.652,3.881
				c-0.064,0.139-0.104,0.289-0.104,0.45v0.407v9.341v0.407v0.407v3.519H82.498C80.941,43.799,79.674,42.533,79.674,40.977z
				 M104.179,34.329c0.048,0.031,0.1,0.062,0.15,0.094c0.19,0.118,0.389,0.236,0.596,0.352c0.06,0.032,0.117,0.065,0.176,0.097
				c0.252,0.136,0.514,0.268,0.787,0.395c0.044,0.021,0.09,0.039,0.134,0.059c0.24,0.109,0.485,0.216,0.739,0.315
				c0.075,0.031,0.148,0.063,0.222,0.093c0.299,0.116,0.604,0.23,0.918,0.338c0.018,0.006,0.035,0.012,0.052,0.019
				c0.301,0.104,0.611,0.202,0.927,0.297c0.084,0.025,0.17,0.052,0.255,0.076c0.312,0.09,0.628,0.18,0.952,0.263
				c0.025,0.009,0.051,0.016,0.077,0.021c0.35,0.089,0.706,0.172,1.067,0.255c0.09,0.019,0.182,0.04,0.274,0.058
				c0.31,0.068,0.622,0.132,0.938,0.192c0.063,0.013,0.126,0.024,0.189,0.037c0.371,0.068,0.748,0.134,1.127,0.193
				c0.09,0.014,0.182,0.027,0.271,0.042c0.315,0.05,0.633,0.096,0.952,0.137c0.089,0.013,0.176,0.023,0.263,0.032
				c0.388,0.051,0.778,0.096,1.172,0.137c0.079,0.009,0.16,0.016,0.238,0.021c0.331,0.033,0.664,0.063,0.994,0.09
				c0.102,0.008,0.202,0.017,0.303,0.024c0.398,0.029,0.796,0.055,1.197,0.075c0.056,0.003,0.112,0.005,0.171,0.009
				c0.351,0.016,0.705,0.028,1.058,0.039c0.106,0.003,0.213,0.007,0.32,0.009c0.404,0.008,0.808,0.015,1.211,0.015
				s0.807-0.007,1.21-0.015c0.106-0.002,0.213-0.006,0.321-0.009c0.352-0.011,0.703-0.023,1.058-0.039
				c0.06-0.004,0.115-0.006,0.172-0.009c0.4-0.021,0.799-0.046,1.196-0.075c0.101-0.009,0.201-0.018,0.301-0.024
				c0.334-0.026,0.665-0.057,0.996-0.09c0.078-0.007,0.158-0.015,0.238-0.021c0.394-0.041,0.782-0.085,1.171-0.137
				c0.088-0.009,0.175-0.02,0.263-0.032c0.32-0.043,0.639-0.089,0.953-0.137c0.092-0.015,0.181-0.026,0.272-0.042
				c0.379-0.06,0.754-0.125,1.126-0.193c0.064-0.013,0.126-0.024,0.188-0.037c0.318-0.061,0.632-0.124,0.94-0.192
				c0.094-0.02,0.183-0.04,0.274-0.058c0.361-0.083,0.717-0.166,1.066-0.255c0.025-0.007,0.051-0.014,0.076-0.021
				c0.324-0.083,0.641-0.173,0.952-0.263c0.085-0.024,0.172-0.051,0.255-0.076c0.316-0.097,0.626-0.193,0.927-0.297
				c0.017-0.005,0.035-0.011,0.053-0.019c0.313-0.108,0.62-0.222,0.917-0.338c0.077-0.029,0.149-0.06,0.224-0.093
				c0.253-0.1,0.499-0.207,0.738-0.315c0.046-0.021,0.09-0.038,0.134-0.059c0.272-0.127,0.533-0.259,0.787-0.395
				c0.061-0.032,0.118-0.064,0.177-0.097c0.206-0.115,0.403-0.232,0.596-0.352c0.051-0.032,0.102-0.062,0.15-0.094
				c0.225-0.146,0.437-0.295,0.639-0.448c0.013-0.009,0.026-0.019,0.041-0.028v5.402c-0.025,0.126-0.043,0.253-0.021,0.383
				c0.015,0.079,0.024,0.158,0.024,0.237c0,0.119-0.033,0.24-0.061,0.361c-0.023,0.093-0.054,0.187-0.093,0.279
				c-0.034,0.082-0.078,0.165-0.126,0.246c-0.046,0.082-0.097,0.164-0.156,0.245c-0.084,0.112-0.177,0.226-0.285,0.338
				c-0.04,0.043-0.08,0.087-0.123,0.131c-2.293,2.217-9.059,4.22-17.567,4.22c-8.503,0-15.265-2-17.562-4.216
				c-0.048-0.05-0.091-0.097-0.135-0.143c-0.101-0.108-0.193-0.217-0.274-0.326c-0.061-0.085-0.116-0.171-0.164-0.257
				c-0.044-0.076-0.085-0.153-0.119-0.231c-0.042-0.098-0.071-0.196-0.096-0.294c-0.029-0.12-0.063-0.237-0.063-0.354
				c0-0.077,0.011-0.154,0.022-0.23c0.022-0.14,0.009-0.281-0.022-0.415v-5.377c0.013,0.009,0.028,0.019,0.041,0.028
				C103.742,34.033,103.955,34.183,104.179,34.329z M140.169,50.262c-0.034,0.081-0.078,0.165-0.127,0.246
				c-0.045,0.081-0.096,0.163-0.156,0.244c-0.083,0.113-0.175,0.226-0.284,0.338c-0.04,0.044-0.081,0.087-0.123,0.131
				c-2.293,2.218-9.06,4.221-17.566,4.221c-8.503,0-15.266-2-17.563-4.217c-0.047-0.05-0.091-0.096-0.135-0.143
				c-0.102-0.107-0.194-0.216-0.274-0.325c-0.061-0.086-0.116-0.172-0.164-0.258c-0.044-0.076-0.085-0.154-0.119-0.231
				c-0.042-0.098-0.072-0.196-0.096-0.293c-0.024-0.101-0.051-0.206-0.054-0.307v-0.13c0.004-0.049,0.007-0.096,0.014-0.146
				c0.015-0.093-0.005-0.184-0.016-0.275l-0.005-5.317v-0.2c0.044,0.034,0.095,0.064,0.139,0.098
				c0.137,0.102,0.28,0.201,0.425,0.299c0.119,0.08,0.243,0.158,0.369,0.236c0.193,0.119,0.388,0.237,0.597,0.35
				c0.002,0.002,0.005,0.004,0.005,0.004c2.26,1.231,5.366,2.121,8.799,2.659c0.027,0.004,0.053,0.008,0.079,0.012
				c1.108,0.174,2.246,0.307,3.401,0.405c0.246,0.021,0.49,0.042,0.739,0.061c0.241,0.016,0.483,0.03,0.725,0.045
				c0.329,0.019,0.654,0.034,0.981,0.048c0.192,0.007,0.382,0.016,0.572,0.021c0.528,0.015,1.056,0.024,1.58,0.024
				s1.052-0.009,1.576-0.023c0.193-0.007,0.383-0.014,0.578-0.021c0.323-0.014,0.646-0.029,0.971-0.047
				c0.245-0.015,0.488-0.029,0.732-0.047c0.244-0.017,0.485-0.037,0.728-0.059c1.168-0.098,2.316-0.235,3.433-0.408
				c0.017-0.002,0.034-0.005,0.05-0.007c3.752-0.587,7.109-1.596,9.401-3.01c0.125-0.077,0.248-0.154,0.367-0.233
				c0.146-0.096,0.289-0.198,0.424-0.3c0.049-0.034,0.104-0.068,0.152-0.104v5.4c-0.025,0.126-0.044,0.254-0.022,0.383
				c0.01,0.08,0.021,0.158,0.021,0.238c0,0.119-0.033,0.24-0.062,0.36C140.238,50.075,140.209,50.169,140.169,50.262z
				 M82.499,64.379c-1.558,0-2.824-1.268-2.824-2.825V48.791c0-1.559,1.268-2.825,2.824-2.825h18.836v3.25v0.406v0.405v9.748v1.082
				h0.321c0.018,0.042,0.042,0.08,0.061,0.119c0.039,0.082,0.08,0.162,0.124,0.242c0.089,0.16,0.189,0.317,0.301,0.474
				c0.11,0.157,0.234,0.309,0.367,0.46c0.068,0.074,0.135,0.15,0.207,0.225c0.415,0.429,0.913,0.829,1.488,1.204
				c0.02,0.013,0.04,0.025,0.06,0.039c0.417,0.267,0.867,0.521,1.352,0.759H82.499L82.499,64.379z M140.324,59.498
				c-0.008,0.033-0.017,0.068-0.021,0.101c-0.443,2.701-7.938,5.592-18.39,5.592c-3.336,0-6.364-0.297-8.964-0.786l0.001-0.008
				c-5.386-1.021-8.366-2.74-9.2-4.192c-0.001-0.002-0.002-0.002-0.002-0.005c-0.038-0.066-0.065-0.133-0.095-0.197
				c-0.057-0.136-0.109-0.271-0.131-0.405l-0.008-6.244c0.039,0.03,0.085,0.06,0.125,0.091c0.137,0.102,0.28,0.201,0.425,0.299
				c0.119,0.081,0.243,0.158,0.368,0.236c0.194,0.117,0.389,0.236,0.597,0.351c0.002,0.001,0.004,0.002,0.006,0.003
				c2.26,1.231,5.365,2.119,8.799,2.658c0.025,0.006,0.053,0.008,0.079,0.013c1.107,0.172,2.244,0.306,3.4,0.405
				c0.246,0.021,0.491,0.042,0.738,0.059c0.242,0.019,0.482,0.033,0.726,0.046c0.329,0.02,0.654,0.034,0.983,0.048
				c0.189,0.008,0.38,0.017,0.571,0.021c0.528,0.016,1.055,0.026,1.58,0.026c0.523,0,1.05-0.011,1.574-0.025
				c0.192-0.006,0.385-0.015,0.577-0.022c0.325-0.013,0.649-0.027,0.973-0.045c0.245-0.014,0.488-0.028,0.731-0.047
				c0.246-0.019,0.484-0.038,0.728-0.059c1.167-0.099,2.315-0.235,3.434-0.407c0.017-0.003,0.033-0.005,0.049-0.009
				c3.753-0.586,7.108-1.595,9.402-3.01c0.124-0.075,0.249-0.153,0.367-0.231c0.146-0.097,0.289-0.198,0.425-0.3
				c0.048-0.035,0.102-0.067,0.15-0.105L140.324,59.498L140.324,59.498z M140.324,30.127c0,2.748-7.874,5.821-18.41,5.821
				c-10.54,0-18.413-3.073-18.413-5.821c0-0.139,0.034-0.279,0.074-0.421c0.043-0.139,0.102-0.283,0.188-0.43
				c0.002-0.007,0.006-0.014,0.01-0.02c0.36-0.602,1.087-1.25,2.206-1.875c0.048-0.026,0.097-0.053,0.146-0.078
				c0.192-0.104,0.394-0.207,0.606-0.31c0.249-0.115,0.503-0.231,0.775-0.344c0.053-0.021,0.109-0.044,0.164-0.065
				c1.258-0.501,2.774-0.947,4.482-1.311c0.532-0.112,1.076-0.218,1.637-0.312c0.148-0.025,0.292-0.052,0.444-0.076
				c4.849-0.747,10.505-0.747,15.354,0c0.152,0.024,0.3,0.052,0.45,0.076c0.557,0.094,1.096,0.197,1.626,0.311
				C136.943,26.398,140.324,28.329,140.324,30.127z M140.324,20.398c0,1.556-1.267,2.823-2.824,2.823h-5.014
				c-0.063-0.014-0.132-0.021-0.196-0.037c-0.709-0.154-1.44-0.291-2.188-0.41c-0.071-0.011-0.144-0.022-0.217-0.033
				c-2.557-0.397-5.285-0.602-7.97-0.602c-2.687,0-5.413,0.204-7.971,0.602c-0.074,0.011-0.146,0.022-0.223,0.033
				c-0.745,0.119-1.474,0.257-2.182,0.409c-0.064,0.015-0.135,0.023-0.2,0.037H82.5c-1.557,0.001-2.824-1.267-2.824-2.823V7.636
				c0-1.559,1.268-2.825,2.824-2.825h55c1.559,0,2.825,1.267,2.825,2.825L140.324,20.398L140.324,20.398z"/>
		</g>
		<g>
			<path fill="#FFFFFF" d="M168.879,9.144c-2.688,0-4.873,2.186-4.873,4.873s2.186,4.874,4.873,4.874
				c2.689,0,4.875-2.187,4.875-4.874S171.568,9.144,168.879,9.144z M168.879,16.725c-1.49,0-2.707-1.214-2.707-2.708
				c0-1.493,1.215-2.708,2.707-2.708c1.494,0,2.709,1.215,2.709,2.708C171.588,15.511,170.371,16.725,168.879,16.725z"/>
			<circle fill="#FFFFFF" cx="211.66" cy="12.392" r="1.083"/>
			<circle fill="#FFFFFF" cx="207.326" cy="12.392" r="1.083"/>
			<circle fill="#FFFFFF" cx="213.826" cy="15.641" r="1.083"/>
			<circle fill="#FFFFFF" cx="209.494" cy="15.641" r="1.083"/>
			<circle fill="#FFFFFF" cx="202.996" cy="12.392" r="1.083"/>
			<circle fill="#FFFFFF" cx="205.162" cy="15.641" r="1.083"/>
			<circle fill="#FFFFFF" cx="198.664" cy="12.392" r="1.083"/>
			<circle fill="#FFFFFF" cx="200.828" cy="15.641" r="1.083"/>
			<circle fill="#FFFFFF" cx="194.33" cy="12.392" r="1.083"/>
			<circle fill="#FFFFFF" cx="196.498" cy="15.641" r="1.083"/>
			<path fill="#FFFFFF" d="M168.879,29.721c-2.688,0-4.873,2.187-4.873,4.875c0,2.687,2.186,4.872,4.873,4.872
				c2.689,0,4.875-2.186,4.875-4.872C173.754,31.907,171.568,29.721,168.879,29.721z M168.879,37.301
				c-1.49,0-2.707-1.212-2.707-2.705c0-1.494,1.215-2.709,2.707-2.709c1.494,0,2.709,1.215,2.709,2.709
				C171.588,36.089,170.371,37.301,168.879,37.301z"/>
			<path fill="#FFFFFF" d="M168.879,50.298c-2.688,0-4.873,2.187-4.873,4.874s2.186,4.874,4.873,4.874
				c2.689,0,4.875-2.187,4.875-4.874S171.568,50.298,168.879,50.298z M168.879,57.881c-1.49,0-2.707-1.217-2.707-2.709
				c0-1.493,1.215-2.708,2.707-2.708c1.494,0,2.709,1.215,2.709,2.708S170.371,57.881,168.879,57.881z"/>
			<path fill="#FFFFFF" d="M222.49,20.398V7.636c0-2.753-2.238-4.991-4.99-4.991h-55.002c-2.75,0-4.99,2.238-4.99,4.991v12.762
				c0,1.591,0.762,2.993,1.926,3.906c-1.164,0.916-1.926,2.319-1.926,3.909v12.763c0,1.589,0.762,2.992,1.926,3.906
				c-1.164,0.916-1.926,2.319-1.926,3.909v12.761c0,2.752,2.24,4.992,4.99,4.992h30.189c2.906,0.534,6.09,0.812,9.227,0.812
				c9.393,0,19.295-2.437,20.463-7.099c0.072-0.144,0.115-0.309,0.115-0.483v-9.748v-0.403v-0.406V40.28v-0.406v-0.406v-9.341V29.72
				c0-0.162-0.041-0.313-0.104-0.45c-0.377-1.585-1.787-2.92-3.857-3.991C220.787,24.804,222.49,22.797,222.49,20.398z
				 M159.674,40.977V28.213c0-1.559,1.268-2.824,2.824-2.824h22.592c-1.959,1.052-3.289,2.348-3.652,3.881
				c-0.063,0.139-0.104,0.289-0.104,0.45v0.407v9.341v0.407v0.407v3.519h-18.836C160.941,43.799,159.674,42.533,159.674,40.977z
				 M184.18,34.329c0.047,0.031,0.1,0.062,0.148,0.094c0.191,0.118,0.391,0.236,0.598,0.352c0.059,0.032,0.117,0.065,0.176,0.097
				c0.252,0.136,0.514,0.268,0.787,0.395c0.043,0.021,0.09,0.039,0.133,0.059c0.24,0.109,0.486,0.216,0.74,0.315
				c0.074,0.031,0.148,0.063,0.223,0.093c0.299,0.116,0.604,0.23,0.918,0.338c0.018,0.006,0.035,0.012,0.051,0.019
				c0.301,0.104,0.611,0.202,0.928,0.297c0.084,0.025,0.17,0.052,0.256,0.076c0.311,0.09,0.627,0.18,0.951,0.263
				c0.025,0.009,0.051,0.016,0.076,0.021c0.35,0.089,0.705,0.172,1.066,0.255c0.092,0.019,0.182,0.04,0.275,0.058
				c0.309,0.068,0.621,0.132,0.938,0.192c0.064,0.013,0.127,0.024,0.189,0.037c0.371,0.068,0.748,0.134,1.127,0.193
				c0.09,0.014,0.182,0.027,0.271,0.042c0.316,0.05,0.633,0.096,0.953,0.137c0.088,0.013,0.176,0.023,0.262,0.032
				c0.389,0.051,0.779,0.096,1.172,0.137c0.08,0.009,0.16,0.016,0.238,0.021c0.332,0.033,0.664,0.063,0.994,0.09
				c0.102,0.008,0.203,0.017,0.303,0.024c0.398,0.029,0.797,0.055,1.197,0.075c0.057,0.003,0.113,0.005,0.172,0.009
				c0.35,0.016,0.705,0.028,1.057,0.039c0.107,0.003,0.213,0.007,0.32,0.009c0.404,0.008,0.809,0.015,1.211,0.015
				c0.404,0,0.807-0.007,1.211-0.015c0.105-0.002,0.213-0.006,0.32-0.009c0.352-0.011,0.703-0.023,1.059-0.039
				c0.059-0.004,0.115-0.006,0.172-0.009c0.4-0.021,0.799-0.046,1.195-0.075c0.102-0.009,0.201-0.018,0.301-0.024
				c0.334-0.026,0.666-0.057,0.996-0.09c0.078-0.007,0.158-0.015,0.238-0.021c0.395-0.041,0.783-0.085,1.172-0.137
				c0.088-0.009,0.174-0.02,0.262-0.032c0.32-0.043,0.639-0.089,0.953-0.137c0.092-0.015,0.182-0.026,0.273-0.042
				c0.379-0.06,0.754-0.125,1.125-0.193c0.064-0.013,0.127-0.024,0.188-0.037c0.318-0.061,0.633-0.124,0.941-0.192
				c0.094-0.02,0.182-0.04,0.273-0.058c0.361-0.083,0.717-0.166,1.066-0.255c0.025-0.007,0.051-0.014,0.076-0.021
				c0.324-0.083,0.641-0.173,0.953-0.263c0.084-0.024,0.172-0.051,0.254-0.076c0.316-0.097,0.627-0.193,0.928-0.297
				c0.016-0.005,0.035-0.011,0.053-0.019c0.313-0.108,0.619-0.222,0.916-0.338c0.078-0.029,0.15-0.06,0.225-0.093
				c0.252-0.1,0.498-0.207,0.738-0.315c0.045-0.021,0.09-0.038,0.133-0.059c0.273-0.127,0.533-0.259,0.787-0.395
				c0.061-0.032,0.119-0.064,0.178-0.097c0.205-0.115,0.402-0.232,0.596-0.352c0.051-0.032,0.102-0.062,0.15-0.094
				c0.225-0.146,0.436-0.295,0.639-0.448c0.012-0.009,0.025-0.019,0.041-0.028v5.402c-0.025,0.126-0.043,0.253-0.021,0.383
				c0.014,0.079,0.023,0.158,0.023,0.237c0,0.119-0.033,0.24-0.061,0.361c-0.023,0.093-0.053,0.187-0.092,0.279
				c-0.035,0.082-0.078,0.165-0.127,0.246c-0.045,0.082-0.096,0.164-0.156,0.245c-0.084,0.112-0.176,0.226-0.285,0.338
				c-0.039,0.043-0.08,0.087-0.123,0.131c-2.293,2.217-9.059,4.22-17.566,4.22c-8.504,0-15.266-2-17.563-4.216
				c-0.049-0.05-0.092-0.097-0.135-0.143c-0.102-0.108-0.193-0.217-0.273-0.326c-0.063-0.085-0.117-0.171-0.164-0.257
				c-0.045-0.076-0.086-0.153-0.119-0.231c-0.043-0.098-0.072-0.196-0.096-0.294c-0.029-0.12-0.064-0.237-0.064-0.354
				c0-0.077,0.012-0.154,0.023-0.23c0.021-0.14,0.008-0.281-0.023-0.415v-5.377c0.014,0.009,0.029,0.019,0.041,0.028
				C183.742,34.033,183.955,34.183,184.18,34.329z M220.17,50.262c-0.035,0.081-0.078,0.165-0.127,0.246
				c-0.045,0.081-0.096,0.163-0.156,0.244c-0.084,0.113-0.176,0.226-0.285,0.338c-0.039,0.044-0.08,0.087-0.123,0.131
				c-2.293,2.218-9.059,4.221-17.566,4.221c-8.502,0-15.266-2-17.563-4.217c-0.047-0.05-0.092-0.096-0.135-0.143
				c-0.102-0.107-0.193-0.216-0.273-0.325c-0.063-0.086-0.117-0.172-0.164-0.258c-0.045-0.076-0.086-0.154-0.119-0.231
				c-0.043-0.098-0.072-0.196-0.096-0.293c-0.025-0.101-0.051-0.206-0.055-0.307v-0.13c0.004-0.049,0.008-0.096,0.014-0.146
				c0.016-0.093-0.004-0.184-0.016-0.275l-0.006-5.317v-0.2c0.045,0.034,0.096,0.064,0.141,0.098
				c0.137,0.102,0.279,0.201,0.424,0.299c0.119,0.08,0.244,0.158,0.369,0.236c0.193,0.119,0.389,0.237,0.598,0.35
				c0.002,0.002,0.004,0.004,0.004,0.004c2.262,1.231,5.367,2.121,8.801,2.659c0.027,0.004,0.053,0.008,0.078,0.012
				c1.109,0.174,2.246,0.307,3.402,0.405c0.246,0.021,0.49,0.042,0.738,0.061c0.242,0.016,0.484,0.03,0.725,0.045
				c0.33,0.019,0.654,0.034,0.982,0.048c0.191,0.007,0.381,0.016,0.572,0.021c0.527,0.015,1.055,0.024,1.58,0.024
				c0.523,0,1.051-0.009,1.576-0.023c0.193-0.007,0.383-0.014,0.578-0.021c0.322-0.014,0.646-0.029,0.971-0.047
				c0.244-0.015,0.488-0.029,0.732-0.047c0.244-0.017,0.484-0.037,0.727-0.059c1.168-0.098,2.316-0.235,3.434-0.408
				c0.016-0.002,0.033-0.005,0.049-0.007c3.752-0.587,7.109-1.596,9.402-3.01c0.125-0.077,0.248-0.154,0.367-0.233
				c0.145-0.096,0.289-0.198,0.424-0.3c0.049-0.034,0.104-0.068,0.152-0.104v5.4c-0.025,0.126-0.045,0.254-0.023,0.383
				c0.01,0.08,0.021,0.158,0.021,0.238c0,0.119-0.033,0.24-0.063,0.36C220.238,50.075,220.209,50.169,220.17,50.262z
				 M162.498,64.379c-1.557,0-2.824-1.268-2.824-2.825V48.791c0-1.559,1.268-2.825,2.824-2.825h18.838v3.25v0.406v0.405v9.748v1.082
				h0.32c0.018,0.042,0.043,0.08,0.061,0.119c0.039,0.082,0.08,0.162,0.125,0.242c0.088,0.16,0.189,0.317,0.301,0.474
				c0.109,0.157,0.234,0.309,0.367,0.46c0.068,0.074,0.135,0.15,0.207,0.225c0.414,0.429,0.912,0.829,1.488,1.204
				c0.02,0.013,0.039,0.025,0.059,0.039c0.418,0.267,0.867,0.521,1.354,0.759H162.498L162.498,64.379z M220.324,59.498
				c-0.008,0.033-0.018,0.068-0.021,0.101c-0.443,2.701-7.938,5.592-18.389,5.592c-3.336,0-6.365-0.297-8.965-0.786l0.002-0.008
				c-5.387-1.021-8.367-2.74-9.201-4.192c0-0.002-0.002-0.002-0.002-0.005c-0.037-0.066-0.064-0.133-0.094-0.197
				c-0.057-0.136-0.109-0.271-0.131-0.405l-0.008-6.244c0.039,0.03,0.084,0.06,0.125,0.091c0.137,0.102,0.279,0.201,0.424,0.299
				c0.119,0.081,0.244,0.158,0.369,0.236c0.193,0.117,0.389,0.236,0.596,0.351c0.002,0.001,0.004,0.002,0.006,0.003
				c2.26,1.231,5.365,2.119,8.799,2.658c0.025,0.006,0.053,0.008,0.08,0.013c1.107,0.172,2.244,0.306,3.4,0.405
				c0.246,0.021,0.49,0.042,0.738,0.059c0.242,0.019,0.482,0.033,0.725,0.046c0.33,0.02,0.654,0.034,0.984,0.048
				c0.189,0.008,0.379,0.017,0.57,0.021c0.529,0.016,1.055,0.026,1.58,0.026c0.523,0,1.051-0.011,1.574-0.025
				c0.193-0.006,0.385-0.015,0.578-0.022c0.324-0.013,0.648-0.027,0.973-0.045c0.244-0.014,0.488-0.028,0.73-0.047
				c0.246-0.019,0.484-0.038,0.729-0.059c1.166-0.099,2.314-0.235,3.434-0.407c0.016-0.003,0.033-0.005,0.049-0.009
				c3.752-0.586,7.107-1.595,9.402-3.01c0.123-0.075,0.248-0.153,0.367-0.231c0.145-0.097,0.289-0.198,0.424-0.3
				c0.049-0.035,0.102-0.067,0.15-0.105v6.15H220.324z M220.324,30.127c0,2.748-7.875,5.821-18.41,5.821
				c-10.541,0-18.414-3.073-18.414-5.821c0-0.139,0.035-0.279,0.074-0.421c0.043-0.139,0.102-0.283,0.189-0.43
				c0.002-0.007,0.006-0.014,0.01-0.02c0.359-0.602,1.086-1.25,2.205-1.875c0.047-0.026,0.096-0.053,0.145-0.078
				c0.193-0.104,0.395-0.207,0.607-0.31c0.248-0.115,0.504-0.231,0.775-0.344c0.053-0.021,0.109-0.044,0.164-0.065
				c1.258-0.501,2.773-0.947,4.482-1.311c0.531-0.112,1.076-0.218,1.637-0.312c0.148-0.025,0.291-0.052,0.443-0.076
				c4.85-0.747,10.506-0.747,15.354,0c0.152,0.024,0.301,0.052,0.451,0.076c0.557,0.094,1.096,0.197,1.625,0.311
				C216.943,26.398,220.324,28.329,220.324,30.127z M220.324,20.398c0,1.556-1.268,2.823-2.824,2.823h-5.014
				c-0.064-0.014-0.133-0.021-0.197-0.037c-0.709-0.154-1.439-0.291-2.188-0.41c-0.072-0.011-0.145-0.022-0.217-0.033
				c-2.557-0.397-5.285-0.602-7.971-0.602s-5.412,0.204-7.971,0.602c-0.074,0.011-0.146,0.022-0.223,0.033
				c-0.744,0.119-1.473,0.257-2.182,0.409c-0.064,0.015-0.135,0.023-0.199,0.037H162.5c-1.559,0.001-2.824-1.267-2.824-2.823V7.636
				c0-1.559,1.268-2.825,2.824-2.825h55c1.559,0,2.824,1.267,2.824,2.825V20.398L220.324,20.398z"/>
		</g>
	</g>
</g>
</svg>
